<?xml version="1.0" encoding="UTF-8"?>
<svg version="1.1" xmlns="http://www.w3.org/2000/svg" width="1024" height="1024">
<path d="M0 0 C337.92 0 675.84 0 1024 0 C1024 337.92 1024 675.84 1024 1024 C686.08 1024 348.16 1024 0 1024 C0 686.08 0 348.16 0 0 Z " fill="#E6E6E3" transform="translate(0,0)"/>
<path d="M0 0 C2.16509793 0.00097046 4.3266267 -0.0406047 6.49121094 -0.08496094 C7.87401608 -0.09016992 9.25683349 -0.0928561 10.63964844 -0.09277344 C11.89310059 -0.09986328 13.14655273 -0.10695313 14.43798828 -0.11425781 C18.90648934 0.70255799 20.09132446 1.85803675 22.80371094 5.50097656 C23.54556283 9.06056618 23.48688863 12.56221478 23.45068359 16.18774414 C23.45944519 17.26492706 23.46820679 18.34210999 23.47723389 19.45193481 C23.49925383 23.01686819 23.48465324 26.58056149 23.46777344 30.14550781 C23.4711435 32.6335219 23.4759977 35.12153438 23.48226929 37.60954285 C23.49059118 43.50141113 23.47309153 49.3928325 23.44651544 55.28463525 C23.42256449 61.27187932 23.44639512 67.25859782 23.47342873 73.24582386 C23.49161793 78.39098048 23.48568779 83.53590226 23.47278976 88.68106651 C23.46947929 91.13237315 23.47345869 93.58370187 23.48518753 96.03498268 C23.56648935 117.82530974 20.82033812 136.65210069 5.22558594 153.27441406 C-9.59364785 166.89854835 -25.23329113 173.11409669 -45.46972656 172.74316406 C-62.84547147 171.61392278 -78.06744646 163.37773204 -89.88378906 150.75097656 C-102.01736525 136.01938759 -106.77314928 119.61575765 -105.43994141 100.81640625 C-104.83800189 95.09617142 -103.30480192 89.85488069 -101.19628906 84.50097656 C-100.59494141 82.96570313 -100.59494141 82.96570313 -99.98144531 81.39941406 C-92.55595452 64.74048688 -77.39308702 53.1432937 -60.75878906 46.53222656 C-47.07646738 42.02707186 -32.56267326 44.04551516 -19.19628906 48.50097656 C-19.21199951 47.31544189 -19.22770996 46.12990723 -19.24389648 44.90844727 C-19.29828471 40.50096456 -19.33267152 36.09351142 -19.36108398 31.68579102 C-19.37615034 29.77981575 -19.39660731 27.87387505 -19.42260742 25.96801758 C-19.45908548 23.2250108 -19.47603698 20.48246328 -19.48925781 17.73925781 C-19.50474167 16.89011307 -19.52022552 16.04096832 -19.53617859 15.16609192 C-19.53752231 10.41933127 -19.25203292 7.36389804 -16.19628906 3.50097656 C-15.57439697 2.61829102 -15.57439697 2.61829102 -14.93994141 1.71777344 C-10.92633636 -1.08309572 -4.77993954 -0.01514693 0 0 Z " fill="#358964" transform="translate(308.1962890625,433.4990234375)"/>
<path d="M0 0 C1.46272737 -0.0165225 2.92537524 -0.04376432 4.38769531 -0.08203125 C6.49896014 -0.13699966 8.60832934 -0.15870401 10.72021484 -0.17333984 C11.98639648 -0.19315918 13.25257813 -0.21297852 14.55712891 -0.23339844 C17.95458984 0.35009766 17.95458984 0.35009766 20.8762207 2.2644043 C23.81568644 6.62854237 23.58805591 10.0982308 23.44287109 15.24462891 C23.43579636 16.1919841 23.42872162 17.13933929 23.4214325 18.11540222 C23.39351318 21.13194787 23.33077899 24.14661605 23.26708984 27.16259766 C23.2420038 29.21139892 23.21919117 31.26022936 23.19873047 33.30908203 C23.14369443 38.32347386 23.0574384 43.33646779 22.95458984 48.35009766 C23.80384033 48.06787354 24.65309082 47.78564941 25.52807617 47.49487305 C42.30500228 42.0927385 57.37204816 43.61393895 73.40771484 50.92431641 C89.12155679 59.56692948 99.40754504 72.58218295 104.99658203 89.50512695 C106.67994646 96.4145294 106.3050128 103.635421 106.32568359 110.70556641 C106.33466224 112.29641295 106.34378429 113.88725869 106.3530426 115.47810364 C106.36946319 118.79898117 106.37722115 122.11975864 106.38012695 125.44067383 C106.38553228 129.69119671 106.42332906 133.94077899 106.46887112 138.19103527 C106.49862293 141.4707636 106.50584994 144.75026358 106.5068531 148.03011513 C106.51105198 149.5974087 106.52347311 151.16470315 106.54437065 152.73186302 C106.5712753 154.92196683 106.5664675 157.10986335 106.55395508 159.30004883 C106.55902573 160.5438884 106.56409637 161.78772797 106.56932068 163.06925964 C105.78295953 167.26609412 104.27084278 168.74293982 100.95458984 171.35009766 C97.62060547 171.99707031 97.62060547 171.99707031 93.86083984 172.01416016 C93.19169556 172.01894379 92.52255127 172.02372742 91.83312988 172.02865601 C90.4245365 172.03204422 89.01586333 172.02291687 87.60742188 172.00195312 C85.45963098 171.97516054 83.31706331 172.00172531 81.16943359 172.03369141 C79.79572422 172.0303871 78.42201809 172.02398041 77.04833984 172.01416016 C75.80761719 172.00852051 74.56689453 172.00288086 73.28857422 171.99707031 C69.09449156 171.18319223 67.62587374 169.6067251 64.95458984 166.35009766 C63.60839103 163.65770003 63.82991498 161.57318834 63.82861328 158.55859375 C63.82480652 157.34327972 63.82099976 156.1279657 63.81707764 154.87582397 C63.81688377 154.22413616 63.81668991 153.57244835 63.81649017 152.90101242 C63.81307045 150.15546292 63.79169545 147.41014932 63.77125931 144.66468239 C63.73329503 139.55409402 63.70196568 134.44375329 63.70410156 129.33300781 C63.70489248 125.77715182 63.68136061 122.22215443 63.64221954 118.66652298 C63.62677502 116.66375749 63.63706818 114.66084635 63.64788818 112.65805054 C63.55069658 105.35049437 63.05376713 99.87012771 57.95458984 94.35009766 C52.6402372 89.72958332 48.2786754 87.99026477 41.11083984 88.05712891 C37.2963355 88.57540395 34.24709321 90.45483311 30.95458984 92.35009766 C30.24173828 92.67365234 29.52888672 92.99720703 28.79443359 93.33056641 C26.1576675 94.79170431 25.84415391 96.54454945 24.95458984 99.35009766 C24.45958984 100.83509766 24.45958984 100.83509766 23.95458984 102.35009766 C23.85252756 104.3323805 23.80881656 106.31786174 23.796875 108.30273438 C23.78148178 110.14011673 23.78148178 110.14011673 23.76577759 112.01461792 C23.76062071 112.99570337 23.76062071 112.99570337 23.75535965 113.99660873 C23.74354619 116.04822097 23.72408734 118.09962502 23.70223999 120.15115356 C23.64070607 125.98351081 23.58660243 131.81584571 23.55322266 137.6484375 C23.53224442 141.2182393 23.4969178 144.78765934 23.45246506 148.35724258 C23.43833107 149.71511458 23.42958848 151.0730541 23.42641068 152.43099594 C23.42148679 154.33363756 23.39669206 156.23619609 23.37109375 158.13867188 C23.3630069 159.21994354 23.35492004 160.30121521 23.34658813 161.41525269 C22.90119286 164.74987456 21.91360153 166.64051401 19.95458984 169.35009766 C15.31230762 172.71720278 9.01518091 171.7602645 3.53735352 171.77563477 C1.52610847 171.78754425 -0.48207657 171.83676365 -2.49267578 171.88720703 C-4.4040332 171.8978418 -4.4040332 171.8978418 -6.35400391 171.90869141 C-7.51730225 171.922146 -8.68060059 171.93560059 -9.87915039 171.94946289 C-13.97206805 171.17468358 -15.42919458 169.51022871 -18.04541016 166.35009766 C-19.44007224 163.56077348 -19.18427152 161.26699281 -19.1993103 158.14494324 C-19.20369256 157.50156094 -19.20807481 156.85817865 -19.21258986 156.19529992 C-19.22599257 154.02969248 -19.23215997 151.86412574 -19.23828125 149.69848633 C-19.24618102 148.14967158 -19.25444989 146.60085868 -19.26306152 145.05204773 C-19.2892947 139.95740521 -19.30458979 134.8627544 -19.31884766 129.76806641 C-19.32420668 128.01547045 -19.32958419 126.26287455 -19.33498001 124.5102787 C-19.35661005 117.22118308 -19.37534764 109.93208969 -19.3866024 102.64297009 C-19.40284737 92.1900749 -19.4360368 81.7375511 -19.49300325 71.28479594 C-19.53167669 63.93866598 -19.55123196 56.59263548 -19.55652297 49.24640638 C-19.56017983 44.85695999 -19.5722363 40.46790959 -19.6046257 36.07857323 C-19.63466117 31.94902439 -19.64103466 27.82011208 -19.62924194 23.69047737 C-19.62902083 22.17513534 -19.63735729 20.65976417 -19.65489578 19.14452362 C-19.67755288 17.07431558 -19.66931298 15.0064226 -19.65341187 12.936203 C-19.65672201 11.77826327 -19.66003216 10.62032354 -19.66344261 9.42729473 C-18.86086341 5.43123536 -17.09684355 3.94991227 -14.04541016 1.35009766 C-11.3714861 -1.3238264 -3.83585652 0.03175804 0 0 Z " fill="#348864" transform="translate(526.04541015625,433.64990234375)"/>
<path d="M0 0 C0.69134033 -0.00336868 1.38268066 -0.00673737 2.0949707 -0.01020813 C3.55069448 -0.0099103 5.00648273 0.00524427 6.46191406 0.03442383 C8.68229701 0.07412572 10.89670544 0.05512215 13.1171875 0.02929688 C14.53648135 0.03685675 15.95576203 0.04781103 17.375 0.0625 C18.65761719 0.07450439 19.94023438 0.08650879 21.26171875 0.09887695 C24.6875 0.76171875 24.6875 0.76171875 27.60693359 2.65917969 C30.5989739 7.12090794 30.36206483 10.84095979 30.2890625 16.1015625 C30.29706879 17.10127579 30.30507507 18.10098907 30.31332397 19.1309967 C30.33637876 22.3208176 30.326937 25.5093637 30.3125 28.69921875 C30.30864834 31.88526459 30.31213006 35.07074639 30.33309937 38.25672913 C30.34515496 40.23670605 30.34257484 42.21684136 30.32339478 44.19676208 C30.3477204 50.21453971 30.92826508 54.80589712 35.22265625 59.40625 C40.07906867 63.11997715 42.31465405 63.93421437 48.4375 64.01171875 C50.25507812 64.05039062 50.25507812 64.05039062 52.109375 64.08984375 C56.66999583 63.67162088 59.93243934 62.36253417 63.33203125 59.26171875 C66.48319066 55.21474479 67.80658609 52.45651706 67.8293457 47.36962891 C67.83638016 46.48506012 67.84341461 45.60049133 67.85066223 44.68911743 C67.85690865 43.25939102 67.85690865 43.25939102 67.86328125 41.80078125 C67.88647691 39.78254162 67.91059414 37.76431242 67.93554688 35.74609375 C67.970679 32.56405637 68.00001819 29.38240317 68.01342773 26.20019531 C68.02890232 23.12908476 68.06910557 20.05909553 68.11328125 16.98828125 C68.11137283 16.03917877 68.10946442 15.09007629 68.10749817 14.11221313 C68.18705143 9.81458814 68.28909422 7.40317904 70.59838867 3.68505859 C75.44744791 -0.77922663 81.99083549 0.42402757 88.2355957 0.35668945 C89.74006108 0.33511599 91.24440114 0.30101937 92.74829102 0.25415039 C94.92260469 0.18703162 97.09432693 0.15967837 99.26953125 0.140625 C100.57124268 0.11556885 101.8729541 0.0905127 103.21411133 0.06469727 C106.99715173 0.82385804 108.31241135 1.8566458 110.65539074 4.86496067 C112.62929413 8.49250025 112.36360676 12.25122834 112.30273438 16.29272461 C112.30828339 17.23510986 112.3138324 18.17749512 112.31954956 19.1484375 C112.33134007 22.25833323 112.30705967 25.36676888 112.28125 28.4765625 C112.27953739 30.65165643 112.2796061 32.82675243 112.28137207 35.00184631 C112.27971867 39.5640129 112.26102913 44.12568827 112.22949219 48.68774414 C112.1900275 54.49755296 112.18542248 60.30671236 112.19295502 66.1166296 C112.19604711 70.61320298 112.18382169 75.10963409 112.16682434 79.60617256 C112.15985321 81.74569364 112.15666255 83.88523085 112.15751648 86.02476311 C112.14233324 111.08132719 108.19548393 132.49969995 90.27734375 151.2890625 C79.34229197 161.70422276 61.44876846 171.26867009 45.9375 171.0390625 C42.33406215 170.59488874 40.34504465 169.16616391 37.6875 166.76171875 C33.8017475 161.0861089 34.20639653 155.25651816 34.25 148.63671875 C34.23001953 147.55261719 34.21003906 146.46851563 34.18945312 145.3515625 C34.19009766 144.30871094 34.19074219 143.26585937 34.19140625 142.19140625 C34.18955322 141.24507324 34.1877002 140.29874023 34.18579102 139.32373047 C34.83428319 136.01216023 36.09359551 134.85462171 38.6875 132.76171875 C41.60546875 131.55859375 41.60546875 131.55859375 44.875 130.51171875 C54.16858488 127.0905113 60.35312358 121.74817989 64.82421875 112.8828125 C65.91511823 110.20245767 66.46579581 107.64387324 66.6875 104.76171875 C65.56730469 105.08527344 64.44710937 105.40882813 63.29296875 105.7421875 C45.61143113 110.13827874 27.0213781 105.96204561 11.6875 96.76171875 C1.20061637 89.49911289 -6.53359544 77.86204527 -10.3125 65.76171875 C-10.65039551 64.80128662 -10.98829102 63.84085449 -11.33642578 62.85131836 C-12.81484811 57.62258947 -12.65686051 52.31028721 -12.68359375 46.9140625 C-12.69262222 45.78400284 -12.7016507 44.65394318 -12.71095276 43.48963928 C-12.72541533 41.10859818 -12.73433202 38.72751769 -12.73803711 36.34643555 C-12.74997286 32.70749381 -12.79923386 29.07022705 -12.84960938 25.43164062 C-12.85906999 23.11328949 -12.86630675 20.79492799 -12.87109375 18.4765625 C-12.89062607 17.39205307 -12.91015839 16.30754364 -12.93028259 15.19017029 C-12.88001438 6.77014092 -12.88001438 6.77014092 -10.23461914 3.07714844 C-6.57802252 0.17973325 -4.63389679 0.00145537 0 0 Z " fill="#358965" transform="translate(709.3125,479.23828125)"/>
<path d="M0 0 C1.30485352 -0.01606293 2.60970703 -0.03212585 3.95410156 -0.04867554 C5.37043604 -0.06015982 6.78677785 -0.07076889 8.203125 -0.08056641 C9.2791095 -0.08855192 9.2791095 -0.08855192 10.37683105 -0.09669876 C14.16917855 -0.12334389 17.961494 -0.14275154 21.75390625 -0.15722656 C24.88701389 -0.17059362 28.01947451 -0.19850769 31.15234375 -0.23925781 C34.9447961 -0.28857386 38.73665966 -0.31334445 42.52941895 -0.32045364 C43.97113489 -0.32716096 45.41283792 -0.34236987 46.85437012 -0.36634445 C48.87143134 -0.39799491 50.88894528 -0.39503116 52.90625 -0.390625 C54.05254883 -0.39871185 55.19884766 -0.40679871 56.37988281 -0.41513062 C60.41165932 0.38250486 61.90327553 2.04276804 64.453125 5.19287109 C65.08422852 7.88427734 65.08422852 7.88427734 65.08203125 10.75537109 C65.08396484 11.79951172 65.08589844 12.84365234 65.08789062 13.91943359 C65.06404297 14.99966797 65.04019531 16.07990234 65.015625 17.19287109 C65.02658203 18.27310547 65.03753906 19.35333984 65.04882812 20.46630859 C64.97610724 28.32016454 64.97610724 28.32016454 62.54296875 32.38037109 C59.34734676 35.1519012 57.54446978 35.32403889 53.39257812 35.36645508 C52.33808472 35.37994492 51.28359131 35.39343475 50.19714355 35.40733337 C49.05442993 35.41777176 47.91171631 35.42821014 46.734375 35.43896484 C44.33463162 35.47189257 41.93489213 35.50510439 39.53515625 35.53857422 C35.73619168 35.58609205 31.93724406 35.63053472 28.13818359 35.66967773 C24.48258103 35.70924258 20.82730166 35.76081533 17.171875 35.81396484 C16.02916138 35.822379 14.88644775 35.83079315 13.70910645 35.83946228 C12.12736633 35.86442528 12.12736633 35.86442528 10.51367188 35.88989258 C9.11707336 35.90535378 9.11707336 35.90535378 7.69226074 35.92112732 C5.25097502 35.98384362 5.25097502 35.98384362 3.453125 38.19287109 C3.11979167 40.69287109 3.11979167 40.69287109 3.453125 43.19287109 C5.90467277 45.64441887 7.26103201 45.43341201 10.60705566 45.46932983 C11.30907104 45.46833282 12.01108643 45.46733582 12.734375 45.46630859 C14.23177792 45.48662605 15.72917368 45.5074773 17.2265625 45.52880859 C19.57851168 45.55124527 21.93017593 45.56781336 24.28222656 45.57373047 C38.73585768 45.63500063 48.92021075 48.05065804 59.5859375 58.22802734 C68.28722056 67.33066109 70.05011698 75.56333096 69.92626953 87.85913086 C69.5029883 100.03933425 64.51891473 108.57459106 55.765625 116.88037109 C48.36647254 123.11048598 39.69996992 126.27657975 30.12744141 126.38574219 C28.2049205 126.40983658 28.2049205 126.40983658 26.24356079 126.43441772 C24.84727647 126.44590413 23.4509847 126.45651285 22.0546875 126.46630859 C20.99574846 126.47429411 20.99574846 126.47429411 19.91541672 126.48244095 C16.18027586 126.5091157 12.44516781 126.52851054 8.70996094 126.54296875 C5.62534993 126.55631605 2.54139921 126.58418961 -0.54296875 126.625 C-4.27591978 126.67438186 -8.0082715 126.69909547 -11.74153519 126.70619583 C-13.16009702 126.71289537 -14.57864615 126.72808396 -15.99702072 126.75208664 C-28.45765259 126.95096537 -28.45765259 126.95096537 -32.41796875 124.03515625 C-34.8646867 120.76856332 -35.29681886 119.23721363 -35.2734375 115.19287109 C-35.27214844 114.05849609 -35.27085937 112.92412109 -35.26953125 111.75537109 C-35.23730469 110.57974609 -35.20507812 109.40412109 -35.171875 108.19287109 C-35.17832031 107.01724609 -35.18476563 105.84162109 -35.19140625 104.63037109 C-35.06829848 94.78174974 -35.06829848 94.78174974 -30.546875 90.19287109 C-27.86395264 89.55363464 -27.86395264 89.55363464 -24.76855469 89.53344727 C-23.02720245 89.50398262 -23.02720245 89.50398262 -21.25067139 89.47392273 C-20.00263733 89.47785538 -18.75460327 89.48178802 -17.46875 89.48583984 C-16.18703918 89.47071854 -14.90532837 89.45559723 -13.58477783 89.4400177 C-10.18494866 89.40018535 -6.7856551 89.38997862 -3.38562012 89.38598633 C0.08683502 89.37665123 3.5589759 89.33923558 7.03125 89.30419922 C13.83849701 89.23964236 20.64559054 89.20638682 27.453125 89.19287109 C27.7033407 86.2765298 27.7033407 86.2765298 27.453125 83.19287109 C23.86425626 80.80029193 22.17967173 80.92869263 17.9140625 80.88427734 C16.61082031 80.85914063 15.30757813 80.83400391 13.96484375 80.80810547 C11.90479855 80.77955474 9.84482391 80.75552472 7.78466797 80.73657227 C-5.80649507 80.58730895 -16.82829052 78.41543369 -27.0390625 68.86083984 C-37.02317553 58.20566347 -39.04223767 49.04503743 -38.82421875 34.91552734 C-38.40609366 24.3334263 -32.93182536 16.06545461 -25.296875 9.00537109 C-17.65152991 2.78715708 -9.75485882 0.10944049 0 0 Z " fill="#358965" transform="translate(426.546875,478.80712890625)"/>
<path d="M0 0 C10.05263442 7.23789678 17.55467836 18.14166094 20.59765625 30.25390625 C22.74690898 44.92307783 20.43181851 58.14697637 11.88671875 70.5078125 C4.68474664 80.02097649 -4.87770638 86.32134935 -16.39453125 89.703125 C-32.42786396 91.53001149 -47.39865373 90.54212725 -60.4921875 80.2734375 C-66.85608884 74.5042933 -71.64700898 67.8946085 -75 60 C-75.391875 59.13375 -75.78375 58.2675 -76.1875 57.375 C-80.28870079 45.38687462 -79.06151278 30.42721905 -74 19 C-72.21975702 15.80127464 -70.23126203 12.89758411 -68 10 C-67.401875 9.13375 -66.80375 8.2675 -66.1875 7.375 C-48.47082393 -11.86024831 -21.51869503 -13.97637703 0 0 Z " fill="#DA974D" transform="translate(787,383)"/>
<path d="M0 0 C1.50446537 -0.02157347 3.00880543 -0.05567009 4.51269531 -0.10253906 C6.68700899 -0.16965783 8.85873122 -0.19701109 11.03393555 -0.21606445 C12.33564697 -0.24112061 13.6373584 -0.26617676 14.97851562 -0.29199219 C18.70777393 0.45637588 20.10603748 1.41787167 22.42104435 4.39502239 C24.56428272 8.57398378 24.11189237 13.19861898 24.04785156 17.79125977 C24.05393936 19.49968048 24.05393936 19.49968048 24.06015015 21.24261475 C24.06566303 23.71107873 24.05967127 26.17958933 24.04348946 28.64800644 C24.01808063 32.55759338 24.0228653 36.46612535 24.03538513 40.37576294 C24.05601772 47.97230186 24.04047409 55.5685474 24.01991272 63.16506958 C23.99303647 73.48420856 23.98683391 83.80302658 24.01490593 94.12216568 C24.01826399 97.96888286 23.99705123 101.81495034 23.97450256 105.66159058 C23.97701447 108.02773174 23.98057515 110.39387209 23.98535156 112.76000977 C23.97246597 113.82520844 23.95958038 114.8904071 23.94630432 115.98788452 C23.99561193 123.3261043 25.1819268 128.67217827 30.1628418 134.3581543 C30.71198242 134.78612305 31.26112305 135.2140918 31.8269043 135.6550293 C32.4250293 136.1294043 33.0231543 136.6037793 33.6394043 137.0925293 C35.34266899 138.32592787 37.06697877 139.50430876 38.8269043 140.6550293 C41.4519043 142.4050293 41.4519043 142.4050293 42.4519043 144.4050293 C43.6635701 153.10141547 41.54879134 159.34780108 36.4519043 166.4050293 C32.44510246 170.65637772 28.95754511 172.59678343 23.1394043 172.9050293 C12.74963874 172.80536728 3.85806665 166.68677029 -3.4855957 159.6940918 C-20.4517818 140.86419586 -19.8698569 119.01826971 -19.8840332 95.1550293 C-19.89046782 92.60725837 -19.89719667 90.05948817 -19.90420532 87.51171875 C-19.91612782 82.19634996 -19.91997705 76.88104939 -19.91870117 71.56567383 C-19.91749422 65.42998628 -19.93872984 59.29464728 -19.9701885 53.15904808 C-19.99949368 47.23073731 -20.00667772 41.30253337 -20.00548172 35.37414551 C-20.0078422 32.86070317 -20.01669077 30.34725823 -20.03214645 27.8338623 C-20.05169841 24.32994191 -20.04601294 20.82693248 -20.03393555 17.32299805 C-20.04517456 16.28606308 -20.05641357 15.24912811 -20.06799316 14.18077087 C-20.0289346 9.73102467 -20.00022452 7.14535176 -17.64273071 3.28515625 C-12.74887778 -1.10752542 -6.24252687 0.06731404 0 0 Z " fill="#358A65" transform="translate(662.548095703125,433.594970703125)"/>
<path d="M0 0 C0.99 0 1.98 0 3 0 C3.07681704 10.63702619 2.83736025 21.24475596 2.5 31.875 C2.45162761 33.44921276 2.40344948 35.0234315 2.35546875 36.59765625 C2.23920939 40.3985099 2.12035313 44.19927387 2 48 C3.32 48 4.64 48 6 48 C6.33 32.16 6.66 16.32 7 0 C8.32 0 9.64 0 11 0 C11 15.84 11 31.68 11 48 C12.32 48 13.64 48 15 48 C15 32.16 15 16.32 15 0 C16.32 0 17.64 0 19 0 C20.46961877 15.95586098 20.09464518 31.99477279 20 48 C21.32 48 22.64 48 24 48 C23.67 32.16 23.34 16.32 23 0 C23.99 0 24.98 0 26 0 C27.76383709 7.66782325 28.69068188 15.34763133 29.43261719 23.17504883 C29.62310869 25.1677156 29.82711321 27.15907547 30.03125 29.15039062 C33.05268999 60.36679864 33.05268999 60.36679864 24.4375 70.9375 C23.63183594 71.85402344 22.82617188 72.77054687 21.99609375 73.71484375 C17.37076737 79.00998256 18.39205696 86.22496596 18.71728516 92.91503906 C20.13380393 108.37197446 24.24378721 124.00203815 28.23828125 138.96875 C30.12104313 146.46117676 32.13554496 155.7847062 28.3125 162.9375 C25.31581913 166.90607737 22.7427732 169.4190756 18 171 C13.03139685 171.52166057 9.14481021 171.5724051 4.625 169.3125 C0.69998934 165.85475251 -2.71614571 162.55828166 -3.30859375 157.21875 C-3.77938994 143.63699329 -0.34611905 131.08047549 3 118 C3.603531 115.5930131 4.20386504 113.18525091 4.80371094 110.77734375 C5.27318763 108.90664582 5.75516795 107.03909771 6.23828125 105.171875 C7.69996365 99.08527956 8.23487634 93.29826711 8.3125 87.0625 C8.34150391 86.28970703 8.37050781 85.51691406 8.40039062 84.72070312 C8.46362062 78.96677337 7.27997862 75.74040706 4 71 C3.154375 70.154375 2.30875 69.30875 1.4375 68.4375 C-3.69775673 63.30224327 -5.14109609 57.57737388 -5.18359375 50.5390625 C-5.11561302 42.01165474 -4.2310255 33.56976589 -3.34594727 25.09423828 C-3.05948844 22.34610874 -2.78392393 19.59703759 -2.50976562 16.84765625 C-2.33135798 15.09368593 -2.15234419 13.33977713 -1.97265625 11.5859375 C-1.89032242 10.76725189 -1.80798859 9.94856628 -1.72315979 9.10507202 C-1.38726012 5.92001844 -1.01620289 3.04860866 0 0 Z " fill="#3E8866" transform="translate(348,434)"/>
<path d="M0 0 C4.17941393 2.62742817 7.03409457 5.17500538 9.8125 9.25 C9.8125 9.91 9.8125 10.57 9.8125 11.25 C10.4725 11.25 11.1325 11.25 11.8125 11.25 C14.51537109 16.67730764 15.36307148 21.02144913 15.3125 27.0625 C15.30677979 27.85567627 15.30105957 28.64885254 15.29516602 29.46606445 C15.03640142 37.97915831 12.29307781 43.74971192 6.625 50.0625 C-0.89581011 57.05437402 -9.66119743 59.62790838 -19.6953125 59.52734375 C-29.32759725 58.76236364 -36.27899833 54.70836114 -42.6171875 47.66015625 C-48.45672624 40.31754097 -49.83947029 31.62157939 -49.6015625 22.4296875 C-48.46709761 13.71785331 -42.96319314 6.23475025 -36.32421875 0.6953125 C-24.97982765 -6.97822444 -11.58477535 -6.53675655 0 0 Z " fill="#DC9B4E" transform="translate(775.1875,396.75)"/>
<path d="M0 0 C0.33 0 0.66 0 1 0 C1 1.98 1 3.96 1 6 C1.99 6.33 2.98 6.66 4 7 C4.3721042 8.32303717 4.70630173 9.65737935 5 11 C5.66 11.33 6.32 11.66 7 12 C7.33 8.04 7.66 4.08 8 0 C8.33 0 8.66 0 9 0 C9.08636719 1.1653125 9.17273438 2.330625 9.26171875 3.53125 C10.75649544 21.64090041 14.59776087 39.20458036 19.203125 56.7578125 C21.06369871 64.32779377 23.1769524 73.70723422 19.3125 80.9375 C16.31581913 84.90607737 13.7427732 87.4190756 9 89 C4.03139685 89.52166057 0.14481021 89.5724051 -4.375 87.3125 C-8.30001066 83.85475251 -11.71614571 80.55828166 -12.30859375 75.21875 C-12.83030683 60.16811803 -8.69976373 45.90442342 -4.78125 31.4765625 C-1.98419127 21.02997193 -0.83836469 10.76636754 0 0 Z " fill="#378864" transform="translate(357,516)"/>
<path d="M0 0 C5.58312613 3.48830029 9.083504 7.57473075 11.17578125 13.8515625 C12.12363229 22.45991453 10.24865601 28.92511141 4.92578125 35.7265625 C-1.39624376 40.61176364 -7.94242058 41.75603114 -15.82421875 40.8515625 C-22.28495371 39.09949878 -26.08844732 35.23343903 -29.82421875 29.8515625 C-32.67539891 23.94011564 -33.03328284 17.61374736 -31.01953125 11.34765625 C-25.12918374 -0.65646574 -12.54327127 -5.10058334 0 0 Z " fill="#E3E5E1" transform="translate(277.82421875,522.1484375)"/>
<path d="M0 0 C4.17941393 2.62742817 7.03409457 5.17500538 9.8125 9.25 C9.8125 9.91 9.8125 10.57 9.8125 11.25 C10.4725 11.25 11.1325 11.25 11.8125 11.25 C14.51537109 16.67730764 15.36307148 21.02144913 15.3125 27.0625 C15.30677979 27.85567627 15.30105957 28.64885254 15.29516602 29.46606445 C15.03640142 37.97915831 12.29307781 43.74971192 6.625 50.0625 C-0.89581011 57.05437402 -9.66119743 59.62790838 -19.6953125 59.52734375 C-29.32759725 58.76236364 -36.27899833 54.70836114 -42.6171875 47.66015625 C-48.45672624 40.31754097 -49.83947029 31.62157939 -49.6015625 22.4296875 C-48.46709761 13.71785331 -42.96319314 6.23475025 -36.32421875 0.6953125 C-24.97982765 -6.97822444 -11.58477535 -6.53675655 0 0 Z M-38.00390625 12.4453125 C-42.25362568 18.92508272 -42.97388459 24.68104832 -42.1875 32.25 C-40.71027835 39.30373337 -36.84938666 44.66513882 -30.99609375 48.796875 C-23.84440176 52.88355614 -16.91489933 53.44036238 -8.89453125 51.7734375 C-2.49696897 49.71928791 2.71466543 45.51865404 6.25 39.8125 C9.24364475 33.04425968 9.11304993 24.48128225 6.96484375 17.4921875 C3.53587002 10.63424005 -1.9999088 7.05429691 -8.5 3.375 C-19.87146489 -0.09426048 -30.71270116 2.82009559 -38.00390625 12.4453125 Z " fill="#E8DFD3" transform="translate(775.1875,396.75)"/>
<path d="M0 0 C0.66 0 1.32 0 2 0 C1.67 39.27 1.34 78.54 1 119 C-1.14169981 115.78745029 -1.24962075 114.97137477 -1.24723816 111.28012085 C-1.25143265 110.3098143 -1.25562714 109.33950775 -1.25994873 108.33979797 C-1.25432922 107.27681992 -1.24870972 106.21384186 -1.24291992 105.11865234 C-1.24481827 103.99815994 -1.24671661 102.87766754 -1.24867249 101.72322083 C-1.25238449 98.01072242 -1.24167105 94.29841858 -1.23046875 90.5859375 C-1.22927723 88.01429263 -1.22882373 85.44264733 -1.2290802 82.8710022 C-1.22751467 77.47907594 -1.2194608 72.08722037 -1.20581055 66.6953125 C-1.19006929 60.45423034 -1.184813 54.21320977 -1.1855461 47.9721092 C-1.18615555 41.97439373 -1.18095084 35.97670348 -1.17275429 29.97899246 C-1.1695613 27.42318468 -1.16759875 24.86737507 -1.16686058 22.3115654 C-1.16470464 18.74853118 -1.15597712 15.18557598 -1.14526367 11.62255859 C-1.14571686 10.55553207 -1.14617004 9.48850555 -1.14663696 8.3891449 C-1.14237198 7.424478 -1.13810699 6.4598111 -1.13371277 5.46591187 C-1.13203692 4.62268057 -1.13036108 3.77944927 -1.12863445 2.91066551 C-1 1 -1 1 0 0 Z " fill="#4E8C72" transform="translate(644,439)"/>
<path d="M0 0 C0.99 0 1.98 0 3 0 C4.76383709 7.66782325 5.69068188 15.34763133 6.43261719 23.17504883 C6.62310869 25.1677156 6.82711321 27.15907547 7.03125 29.15039062 C7.90208497 38.14753766 8.16013419 46.97182839 8 56 C7.67 56 7.34 56 7 56 C6.67 52.7 6.34 49.4 6 46 C5.67 46.66 5.34 47.32 5 48 C3.68 48 2.36 48 1 48 C0.67 32.16 0.34 16.32 0 0 Z " fill="#588C74" transform="translate(371,434)"/>
<path d="M0 0 C0.99 0 1.98 0 3 0 C3.07507671 10.47111588 2.84296807 20.91102122 2.5 31.375 C2.45162143 32.90103529 2.40344331 34.42707695 2.35546875 35.953125 C2.23927964 39.63549265 2.12041393 43.31776779 2 47 C1.34 46.01 0.68 45.02 0 44 C-0.66 44.66 -1.32 45.32 -2 46 C-2.33 45.34 -2.66 44.68 -3 44 C-3.33 47.96 -3.66 51.92 -4 56 C-4.33 56 -4.66 56 -5 56 C-5.33454301 45.59439341 -4.42542676 35.43135646 -3.34594727 25.09423828 C-3.05948844 22.34610874 -2.78392393 19.59703759 -2.50976562 16.84765625 C-2.33135798 15.09368593 -2.15234419 13.33977713 -1.97265625 11.5859375 C-1.89032242 10.76725189 -1.80798859 9.94856628 -1.72315979 9.10507202 C-1.38726012 5.92001844 -1.01620289 3.04860866 0 0 Z " fill="#428966" transform="translate(348,434)"/>
<path d="M0 0 C0 3 0 3 -2 6 C-2.66 6 -3.32 6 -4 6 C-4 6.66 -4 7.32 -4 8 C-6.31 8.66 -8.62 9.32 -11 10 C-11 10.66 -11 11.32 -11 12 C-10.34 12.33 -9.68 12.66 -9 13 C-9 13.66 -9 14.32 -9 15 C-9.99 15.495 -9.99 15.495 -11 16 C-11.33 16.99 -11.66 17.98 -12 19 C4.335 19.495 4.335 19.495 21 20 C21 20.33 21 20.66 21 21 C20.11739502 21.00410889 19.23479004 21.00821777 18.32543945 21.01245117 C15.0352396 21.03949984 11.74688602 21.08864951 8.45727539 21.15258789 C7.03649298 21.17571503 5.61554042 21.19015126 4.19458008 21.19555664 C2.14557534 21.20488661 0.0992265 21.24595166 -1.94921875 21.29296875 C-3.79519653 21.31653442 -3.79519653 21.31653442 -5.6784668 21.34057617 C-9.83060394 22.16489976 -11.23776458 23.89445332 -14 27 C-14.66 27 -15.32 27 -16 27 C-15.34 25.02 -14.68 23.04 -14 21 C-14.66 21 -15.32 21 -16 21 C-16.33 21.66 -16.66 22.32 -17 23 C-17.33 22.01 -17.66 21.02 -18 20 C-18.99 19.67 -19.98 19.34 -21 19 C-21 18.01 -21 17.02 -21 16 C-22.10859375 16.02320313 -23.2171875 16.04640625 -24.359375 16.0703125 C-25.82290992 16.08907577 -27.28645214 16.10727537 -28.75 16.125 C-29.47960937 16.14175781 -30.20921875 16.15851563 -30.9609375 16.17578125 C-34.8044624 16.21072239 -37.74606772 16.17499684 -41 14 C-39.96101562 13.96261719 -38.92203125 13.92523438 -37.8515625 13.88671875 C-23.78616761 13.27341685 -10.07472385 10.84790033 0 0 Z " fill="#D8D8CC" transform="translate(793,459)"/>
<path d="M0 0 C0.66 0.66 1.32 1.32 2 2 C2.66 1.67 3.32 1.34 4 1 C4.02506619 5.60408143 4.04302973 10.20812154 4.05493164 14.81225586 C4.05990307 16.37248427 4.06668257 17.93270817 4.07543945 19.49291992 C4.12769685 29.05602403 3.93036921 38.47289338 3 48 C1.68 48 0.36 48 -1 48 C-1.02510318 43.41422912 -1.04304634 38.82850001 -1.05493164 34.24267578 C-1.05989711 32.68928326 -1.06667173 31.13589525 -1.07543945 29.58251953 C-1.12993357 19.66459056 -0.87962079 9.88705665 0 0 Z " fill="#DAEDE0" transform="translate(351,434)"/>
<path d="M0 0 C0 15.84 0 31.68 0 48 C-1.32 48 -2.64 48 -4 48 C-4 32.49 -4 16.98 -4 1 C-2 0 -2 0 0 0 Z " fill="#DFEBE3" transform="translate(363,434)"/>
<path d="M0 0 C0.66 0.33 1.32 0.66 2 1 C1.99723462 1.80968074 1.99446924 2.61936148 1.99162006 3.453578 C1.92538261 23.14998402 1.87573031 42.84637086 1.84456348 62.5428648 C1.82909104 72.06792385 1.8079943 81.59290857 1.77368164 91.11791992 C1.74379085 99.41939732 1.72442774 107.72082089 1.71773452 116.02235061 C1.71382171 120.41843281 1.70461825 124.81436103 1.68280983 129.21039391 C1.66244974 133.34799781 1.65616522 137.48538428 1.66067696 141.62303352 C1.65985154 143.14158688 1.65388295 144.66014749 1.64238358 146.17865753 C1.62744641 148.2528507 1.63105016 150.32622406 1.63923645 152.4004364 C1.63647107 153.56097377 1.63370569 154.72151114 1.63085651 155.9172163 C2.15889342 160.32694756 3.90328716 162.90328716 7 166 C5.68 166 4.36 166 3 166 C3 165.34 3 164.68 3 164 C1.68 164 0.36 164 -1 164 C-0.67 109.88 -0.34 55.76 0 0 Z " fill="#DFF3E7" transform="translate(506,439)"/>
<path d="M0 0 C0.33 0 0.66 0 1 0 C1.07476563 0.76183594 1.14953125 1.52367187 1.2265625 2.30859375 C2.25332881 10.37172916 4.22896225 16.96473674 10.62109375 22.37109375 C12.35467755 23.58589124 12.35467755 23.58589124 15 25 C15.99 25.66 16.98 26.32 18 27 C16.02 27 14.04 27 12 27 C12.33 27.99 12.66 28.98 13 30 C13.78375 30.144375 14.5675 30.28875 15.375 30.4375 C18 31 18 31 20 32 C20 32.66 20 33.32 20 34 C11.57938359 32.7970548 6.01668296 29.60306004 0.39453125 23.16015625 C-3.2621928 18.25950261 -5.3507528 14.13817391 -5 8 C0 15.5 0 15.5 0 20 C0.66 20 1.32 20 2 20 C3.37310707 21.29233607 4.71034824 22.62437146 6 24 C6.33 23.01 6.66 22.02 7 21 C6.34 21 5.68 21 5 21 C3 18 3 18 3 15 C2.01 14.67 1.02 14.34 0 14 C0 9.38 0 4.76 0 0 Z " fill="#ECDECB" transform="translate(732,421)"/>
<path d="M0 0 C0.33 0 0.66 0 1 0 C1.8886833 5.31057459 2.13355881 10.39885945 2.09765625 15.77734375 C2.0962413 16.58869278 2.09482635 17.40004181 2.09336853 18.23597717 C2.08781357 20.80319047 2.07526967 23.37031348 2.0625 25.9375 C2.05747917 27.68814977 2.05291729 29.43880093 2.04882812 31.18945312 C2.03785893 35.4596697 2.02062582 39.72981959 2 44 C0.68 44 -0.64 44 -2 44 C-2.0501139 39.66244955 -2.08605039 35.32506056 -2.10986328 30.98730469 C-2.11980927 29.51722267 -2.13337091 28.04715984 -2.15087891 26.57714844 C-2.25573 17.53528351 -1.89087163 8.88944161 0 0 Z " fill="#D9E7DE" transform="translate(370,438)"/>
<path d="M0 0 C3.56442379 5.34663568 4.41626109 9.1590782 4.4375 15.625 C4.44330078 16.82745361 4.44330078 16.82745361 4.44921875 18.05419922 C4.32183463 24.61580823 2.81695503 29.57447107 -1 35 C-1.33 33.68 -1.66 32.36 -2 31 C-1.34 31 -0.68 31 0 31 C0 29.02 0 27.04 0 25 C-0.99 25.33 -1.98 25.66 -3 26 C-3.04125 27.0725 -3.0825 28.145 -3.125 29.25 C-4 33 -4 33 -6.875 35.5 C-10 37 -10 37 -13 36 C-12.2575 35.505 -11.515 35.01 -10.75 34.5 C-6.06724886 30.24295351 -4.19742927 26.63239029 -3.71875 20.25 C-3.53864234 13.018106 -3.53864234 13.018106 -5 6 C-4.34 6 -3.68 6 -3 6 C-3 6.66 -3 7.32 -3 8 C-2.34 8 -1.68 8 -1 8 C-0.67 11.63 -0.34 15.26 0 19 C0.66 18.67 1.32 18.34 2 18 C2.46751788 15.64400765 2.46751788 15.64400765 2.625 12.9375 C2.69976563 12.01839844 2.77453125 11.09929687 2.8515625 10.15234375 C2.90054688 9.44207031 2.94953125 8.73179687 3 8 C2.34 8 1.68 8 1 8 C0.67 5.36 0.34 2.72 0 0 Z " fill="#EBD9C6" transform="translate(786,408)"/>
<path d="M0 0 C0.99 0.33 1.98 0.66 3 1 C2.51322375 1.56864651 2.02644751 2.13729301 1.52492046 2.72317123 C-0.17528996 5.26172199 -0.38056467 6.42150892 -0.39872742 9.42926025 C-0.41126556 10.30983093 -0.42380371 11.19040161 -0.4367218 12.09765625 C-0.43456917 13.5347998 -0.43456917 13.5347998 -0.43237305 15.00097656 C-0.44766052 16.52340973 -0.44766052 16.52340973 -0.46325684 18.07659912 C-0.49345068 21.4313301 -0.50266272 24.78577584 -0.51171875 28.140625 C-0.52856066 30.46662347 -0.54671023 32.79261282 -0.56611633 35.11859131 C-0.61367523 41.24073433 -0.64344664 47.36284035 -0.66955566 53.48510742 C-0.69933137 59.73233348 -0.74587198 65.97943194 -0.79101562 72.2265625 C-0.87711584 84.48430834 -0.94443135 96.7420804 -1 109 C-1.33 109 -1.66 109 -2 109 C-2.2001464 95.52664446 -2.38387402 82.05317498 -2.54658794 68.57931232 C-2.62265804 62.32299435 -2.7044024 56.06685737 -2.79907227 49.81079102 C-2.89020961 43.77441464 -2.9664969 37.73801717 -3.03244972 31.70131493 C-3.0602412 29.39714739 -3.09340173 27.0930382 -3.13199425 24.78902626 C-3.18509781 21.5641742 -3.21918248 18.33964343 -3.2487793 15.11450195 C-3.27898415 13.68275131 -3.27898415 13.68275131 -3.30979919 12.22207642 C-3.33375957 7.29644778 -3.19858173 4.02468611 0 0 Z " fill="#DBF1E4" transform="translate(644,435)"/>
<path d="M0 0 C0.99 0 1.98 0 3 0 C3 18.81 3 37.62 3 57 C0.63005327 54.63005327 0.05121272 52.99435602 -0.12025452 49.66511536 C-0.11803391 48.74800278 -0.11581329 47.8308902 -0.11352539 46.88598633 C-0.11344986 45.84513382 -0.11337433 44.80428131 -0.11329651 43.73188782 C-0.10813522 42.60993515 -0.10297394 41.48798248 -0.09765625 40.33203125 C-0.0962413 39.18208176 -0.09482635 38.03213226 -0.09336853 36.84733582 C-0.08776429 33.16903092 -0.07521104 29.49078655 -0.0625 25.8125 C-0.05748555 23.32096442 -0.05292255 20.82942789 -0.04882812 18.33789062 C-0.03779347 12.22523971 -0.02105118 6.11262418 0 0 Z " fill="#458369" transform="translate(697,486)"/>
<path d="M0 0 C0.28875 0.598125 0.5775 1.19625 0.875 1.8125 C2.03065577 4.05960845 3.19703505 6.19703505 5 8 C5.07325168 10.86267567 5.09238205 13.700719 5.0625 16.5625 C5.05798828 17.36880859 5.05347656 18.17511719 5.04882812 19.00585938 C5.03700518 21.00393756 5.01906914 23.00197783 5 25 C4.34 24.01 3.68 23.02 3 22 C2.34 22.66 1.68 23.32 1 24 C0.67 23.34 0.34 22.68 0 22 C-0.33 25.96 -0.66 29.92 -1 34 C-1.33 34 -1.66 34 -2 34 C-2.38178283 22.56772513 -1.21086752 11.35349319 0 0 Z " fill="#508E6F" transform="translate(345,456)"/>
<path d="M0 0 C5.04603826 6.72805102 4.71125031 12.86197324 4 21 C1.92465381 27.90489012 -2.79308547 32.50604149 -9 36 C-9.66 36 -10.32 36 -11 36 C-11 35.34 -11 34.68 -11 34 C-10.01 33.505 -10.01 33.505 -9 33 C-8.731875 32.236875 -8.46375 31.47375 -8.1875 30.6875 C-6.72325494 27.37368224 -4.97448225 26.00777552 -2 24 C-1.34 24 -0.68 24 0 24 C1.7479503 18.75614911 2.19392201 14.52677733 2 9 C1.01 9.66 0.02 10.32 -1 11 C-0.67 7.37 -0.34 3.74 0 0 Z " fill="#D49E5B" transform="translate(779,411)"/>
<path d="M0 0 C1.17073059 0.00707474 2.34146118 0.01414948 3.54766846 0.0214386 C7.28763673 0.04943144 11.02610907 0.11218404 14.765625 0.17578125 C17.30075963 0.20085757 19.83591773 0.22367189 22.37109375 0.24414062 C28.58644807 0.29927441 34.80092967 0.38295148 41.015625 0.48828125 C41.015625 0.81828125 41.015625 1.14828125 41.015625 1.48828125 C23.855625 1.48828125 6.695625 1.48828125 -10.984375 1.48828125 C-11.644375 3.46828125 -12.304375 5.44828125 -12.984375 7.48828125 C-13.314375 7.81828125 -13.644375 8.14828125 -13.984375 8.48828125 C-14.08344892 10.00261676 -14.11517156 11.52149088 -14.1171875 13.0390625 C-14.11847656 13.96525391 -14.11976563 14.89144531 -14.12109375 15.84570312 C-14.11722656 16.82087891 -14.11335938 17.79605469 -14.109375 18.80078125 C-14.11324219 19.76435547 -14.11710937 20.72792969 -14.12109375 21.72070312 C-14.11980469 22.65076172 -14.11851562 23.58082031 -14.1171875 24.5390625 C-14.11605957 25.39153564 -14.11493164 26.24400879 -14.11376953 27.12231445 C-13.99043236 29.37752304 -13.61348255 31.32513836 -12.984375 33.48828125 C-13.974375 32.82828125 -14.964375 32.16828125 -15.984375 31.48828125 C-16.65896946 27.25688242 -16.44713842 22.95448541 -16.421875 18.67578125 C-16.44185547 17.48662109 -16.46183594 16.29746094 -16.48242188 15.07226562 C-16.48177734 13.92435547 -16.48113281 12.77644531 -16.48046875 11.59375 C-16.48232178 10.54340576 -16.4841748 9.49306152 -16.48608398 8.41088867 C-14.84499705 -1.14894185 -8.06381387 -0.18275629 0 0 Z " fill="#478067" transform="translate(407.984375,568.51171875)"/>
<path d="M0 0 C1.16755708 2.33511416 1.10063025 3.62199677 1.0534668 6.21850586 C1.0398259 7.08958481 1.026185 7.96066376 1.01213074 8.85813904 C0.99136978 9.80085159 0.97060883 10.74356415 0.94921875 11.71484375 C0.9303511 12.68152481 0.91148346 13.64820587 0.89204407 14.6441803 C0.85012299 16.69114888 0.80538174 18.73806134 0.75805664 20.78491211 C0.68787045 23.92094758 0.63352901 27.05699967 0.58007812 30.19335938 C0.53742931 32.17970859 0.49384078 34.16603789 0.44921875 36.15234375 C0.43453049 37.09303207 0.41984222 38.0337204 0.40470886 39.00291443 C0.38161148 39.87714554 0.3585141 40.75137665 0.3347168 41.65209961 C0.31837692 42.42106064 0.30203705 43.19002167 0.28520203 43.98228455 C0 46 0 46 -2 49 C-2.0505916 42.34313186 -2.0856876 35.68631306 -2.10986328 29.02929688 C-2.11993859 26.76332751 -2.13359918 24.49737119 -2.15087891 22.23144531 C-2.17506011 18.97978499 -2.18646763 15.72829613 -2.1953125 12.4765625 C-2.20563507 11.45881744 -2.21595764 10.44107239 -2.22659302 9.39248657 C-2.22674408 8.45166229 -2.22689514 7.51083801 -2.22705078 6.54150391 C-2.231492 5.71099518 -2.23593323 4.88048645 -2.24050903 4.02481079 C-2 2 -2 2 0 0 Z " fill="#458A6D" transform="translate(780,484)"/>
<path d="M0 0 C3 1 3 1 4 3 C4.23692005 6.04924878 4.3823756 9.09724003 4.5234375 12.15234375 C5.05270974 15.31496232 5.6489939 15.97801511 8 18 C9.1875 21.1875 9.1875 21.1875 10 24 C10.66 24 11.32 24 12 24 C11.67 25.32 11.34 26.64 11 28 C9 26.625 9 26.625 7 25 C7 24.34 7 23.68 7 23 C6.34 23 5.68 23 5 23 C4.731875 22.319375 4.46375 21.63875 4.1875 20.9375 C3.02361178 17.92426436 3.02361178 17.92426436 1.375 14.875 C-0.72766849 10.10965583 -0.2491182 5.1023098 0 0 Z " fill="#E3E3DD" transform="translate(727,418)"/>
<path d="M0 0 C0.66 0 1.32 0 2 0 C2.33 13.86 2.66 27.72 3 42 C1.515 42.495 1.515 42.495 0 43 C0 28.81 0 14.62 0 0 Z " fill="#CEE6DA" transform="translate(549,439)"/>
<path d="M0 0 C0.33 0 0.66 0 1 0 C1.01981934 0.72590332 1.03963867 1.45180664 1.06005859 2.19970703 C1.1556819 5.50848475 1.26521007 8.8166633 1.375 12.125 C1.4059375 13.26710938 1.436875 14.40921875 1.46875 15.5859375 C1.50742187 16.69453125 1.54609375 17.803125 1.5859375 18.9453125 C1.6173584 19.96125488 1.6487793 20.97719727 1.68115234 22.02392578 C2.0262827 25.24531865 2.92947554 27.95165512 4 31 C4.1953125 33.9921875 4.1953125 33.9921875 4.125 36.875 C4.10695313 37.84179688 4.08890625 38.80859375 4.0703125 39.8046875 C4.03550781 40.89136719 4.03550781 40.89136719 4 42 C2.68 42 1.36 42 0 42 C0 28.14 0 14.28 0 0 Z " fill="#CFE8DA" transform="translate(359,440)"/>
<path d="M0 0 C0.33 0 0.66 0 1 0 C0.85704109 1.39613065 0.71048442 2.79189308 0.5625 4.1875 C0.48128906 4.96480469 0.40007813 5.74210937 0.31640625 6.54296875 C0 9 0 9 -0.51953125 11.18359375 C-1.24031685 15.40868656 -1.22494162 19.59628115 -1.25 23.875 C-1.270625 24.74769531 -1.29125 25.62039063 -1.3125 26.51953125 C-1.34660481 32.18945672 -0.49093981 35.920564 2 41 C2.1875 43.9375 2.1875 43.9375 2 46 C-4.65393439 36.01909842 -5.86403773 22.64805751 -3.60302734 10.9453125 C-2.64731935 7.20876625 -1.39908173 3.59139285 0 0 Z " fill="#CD9B62" transform="translate(713,402)"/>
<path d="M0 0 C0.33 0 0.66 0 1 0 C1.00586624 0.66541306 1.01173248 1.33082611 1.01777649 2.0164032 C1.08172096 8.94342577 1.16614391 15.86998421 1.26245117 22.79663086 C1.29570111 25.38152954 1.32373277 27.96650084 1.34643555 30.55151367 C1.37997927 34.26773009 1.43229728 37.98328101 1.48828125 41.69921875 C1.49467117 42.85459641 1.5010611 44.00997406 1.50764465 45.20036316 C1.52743881 46.28110611 1.54723297 47.36184906 1.56762695 48.4753418 C1.57873001 49.42354294 1.58983307 50.37174408 1.60127258 51.34867859 C2.2188048 55.45493343 4.1032142 58.1032142 7 61 C5.68 61 4.36 61 3 61 C3 60.34 3 59.68 3 59 C1.68 59 0.36 59 -1 59 C-0.67 39.53 -0.34 20.06 0 0 Z " fill="#D5F1E3" transform="translate(506,544)"/>
<path d="M0 0 C0.33 0 0.66 0 1 0 C1.06959394 7.73660514 1.12285889 15.47317771 1.15543652 23.21002483 C1.17107439 26.80280829 1.19227779 30.39537715 1.22631836 33.98803711 C1.25897965 37.45694391 1.27686714 40.92564464 1.28463173 44.39469337 C1.29285018 46.35838752 1.31625892 48.32199908 1.33988953 50.28556824 C1.34011612 51.4864357 1.34034271 52.68730316 1.34057617 53.92456055 C1.34723801 54.97935104 1.35389984 56.03414154 1.36076355 57.12089539 C0.94933369 60.40434683 -0.12265339 62.30812723 -2 65 C-2.33 63.68 -2.66 62.36 -3 61 C-2.34 61 -1.68 61 -1 61 C-0.67 40.87 -0.34 20.74 0 0 Z " fill="#488369" transform="translate(548,538)"/>
<path d="M0 0 C0.99 0.33 1.98 0.66 3 1 C2.566875 1.71542969 2.13375 2.43085938 1.6875 3.16796875 C-3.6736201 12.76089892 -4.57182073 20.87482026 -1.75 31.5 C-0.46244852 35.28256751 1.19227174 38.09545352 4 41 C3.67 41.66 3.34 42.32 3 43 C2.34 43 1.68 43 1 43 C-6.12922864 34.8261286 -5.850828 23.28264555 -5.23339844 13.02294922 C-4.75554593 8.88122761 -3.21143083 5.48144935 -1 2 C-0.67 1.34 -0.34 0.68 0 0 Z " fill="#CC9758" transform="translate(730,403)"/>
<path d="M0 0 C24.03057554 -0.50179856 24.03057554 -0.50179856 34 6 C34 6.99 34 7.98 34 9 C32.0087258 8.01321301 30.02880423 7.01545166 28.0703125 5.96484375 C24.02173227 3.82673813 20.62736519 2.37018922 16 2 C14.90751953 1.90525391 14.90751953 1.90525391 13.79296875 1.80859375 C6.84481235 1.46939241 1.34942975 3.29606033 -5 6 C-5.33 5.01 -5.66 4.02 -6 3 C-4.02 2.67 -2.04 2.34 0 2 C0 1.34 0 0.68 0 0 Z " fill="#D1A062" transform="translate(746,391)"/>
<path d="M0 0 C0.33 0 0.66 0 1 0 C4.16129032 24.33064516 4.16129032 24.33064516 1 35 C0.67 35 0.34 35 0 35 C-0.1979067 30.47955967 -0.3814754 25.95864537 -0.5625 21.4375 C-0.61857422 20.16068359 -0.67464844 18.88386719 -0.73242188 17.56835938 C-0.78076172 16.32763672 -0.82910156 15.08691406 -0.87890625 13.80859375 C-0.94960327 12.10401001 -0.94960327 12.10401001 -1.02172852 10.36499023 C-0.99886915 6.82487074 -0.57607256 3.48940923 0 0 Z " fill="#41886A" transform="translate(373,445)"/>
<path d="M0 0 C2.55403148 2.55403148 2.32607024 3.64009225 2.375 7.1875 C2.24221032 13.95092124 0.41149941 17.38180064 -4.1875 22.375 C-8.03197689 24.59625332 -11.62096211 24.80919225 -16 25 C-16 24.34 -16 23.68 -16 23 C-13.36 23 -10.72 23 -8 23 C-7.7525 22.05125 -7.505 21.1025 -7.25 20.125 C-6 17 -6 17 -3.9375 15.8125 C-2.9784375 15.4103125 -2.9784375 15.4103125 -2 15 C-0.9458482 11.83754459 -0.68724328 9.13051782 -0.4375 5.8125 C-0.35371094 4.72582031 -0.26992188 3.63914062 -0.18359375 2.51953125 C-0.12300781 1.68808594 -0.06242187 0.85664062 0 0 Z " fill="#428366" transform="translate(376,580)"/>
<path d="M0 0 C0.33 0.99 0.66 1.98 1 3 C1.66 3 2.32 3 3 3 C3 4.32 3 5.64 3 7 C3.66 7 4.32 7 5 7 C5 11.62 5 16.24 5 21 C4.34 20.01 3.68 19.02 3 18 C2.34 18.99 1.68 19.98 1 21 C1 16.38 1 11.76 1 7 C0.34 7 -0.32 7 -1 7 C-1.66 5.02 -2.32 3.04 -3 1 C-2.01 0.67 -1.02 0.34 0 0 Z " fill="#E1DFDE" transform="translate(784,409)"/>
<path d="M0 0 C0.66 0.66 1.32 1.32 2 2 C2.66 1.67 3.32 1.34 4 1 C4 12.22 4 23.44 4 35 C3.67 35 3.34 35 3 35 C3 28.07 3 21.14 3 14 C2.01 13.67 1.02 13.34 0 13 C0 8.71 0 4.42 0 0 Z " fill="#C2DDCF" transform="translate(351,434)"/>
<path d="M0 0 C0.33 0 0.66 0 1 0 C1.06058594 1.07121094 1.12117188 2.14242188 1.18359375 3.24609375 C1.26798537 4.64324391 1.35263406 6.04037857 1.4375 7.4375 C1.47681641 8.14455078 1.51613281 8.85160156 1.55664062 9.58007812 C1.47624438 13.08690419 1.47624438 13.08690419 3 16 C3.07319621 18.69654854 3.09242537 21.36691458 3.0625 24.0625 C3.05798828 24.82111328 3.05347656 25.57972656 3.04882812 26.36132812 C3.0370068 28.24091871 3.01907078 30.12046899 3 32 C2.34 32 1.68 32 1 32 C0.67 32.66 0.34 33.32 0 34 C0 22.78 0 11.56 0 0 Z " fill="#CBDCD0" transform="translate(350,448)"/>
<path d="M0 0 C0.66 0 1.32 0 2 0 C1.73652815 4.47902141 -0.03219116 6.71464411 -3.20703125 9.640625 C-9.2666413 14.23483916 -15.63599184 14.40743488 -23 14 C-23.33 13.34 -23.66 12.68 -24 12 C-23.16855469 11.93941406 -22.33710938 11.87882813 -21.48046875 11.81640625 C-20.39378906 11.73261719 -19.30710937 11.64882813 -18.1875 11.5625 C-17.10855469 11.48128906 -16.02960938 11.40007813 -14.91796875 11.31640625 C-11.31794977 10.92604275 -9.52506005 10.52506005 -6.9375 7.9375 C-6.298125 7.298125 -5.65875 6.65875 -5 6 C-4.34 6 -3.68 6 -3 6 C-2.67 5.01 -2.34 4.02 -2 3 C-1.34 2.01 -0.68 1.02 0 0 Z " fill="#CCE5D7" transform="translate(285,549)"/>
<path d="M0 0 C1.41152344 -0.00773437 1.41152344 -0.00773437 2.8515625 -0.015625 C5.375 0.25 5.375 0.25 8.375 2.25 C3.755 2.58 -0.865 2.91 -5.625 3.25 C-5.625 4.24 -5.625 5.23 -5.625 6.25 C-7.22841555 6.58692785 -8.83276555 6.91941093 -10.4375 7.25 C-11.33082031 7.435625 -12.22414063 7.62125 -13.14453125 7.8125 C-15.625 8.25 -15.625 8.25 -18.625 8.25 C-17.4014437 7.28451388 -16.17085189 6.32794102 -14.9375 5.375 C-14.25300781 4.84132813 -13.56851563 4.30765625 -12.86328125 3.7578125 C-8.62478956 0.9025633 -5.09167126 -0.02805329 0 0 Z " fill="#D7A368" transform="translate(757.625,398.75)"/>
<path d="M0 0 C0.66 0 1.32 0 2 0 C2.02578125 0.79664063 2.0515625 1.59328125 2.078125 2.4140625 C2.50116397 10.93598374 2.50116397 10.93598374 7 18 C8.97630407 19.36821051 10.97209016 20.70951192 13 22 C13 22.66 13 23.32 13 24 C10.375 24.0625 10.375 24.0625 7 23 C2.3941084 17.57881265 -0.13787627 12.96036959 -0.0625 5.875 C-0.05347656 4.77929688 -0.04445313 3.68359375 -0.03515625 2.5546875 C-0.02355469 1.71164062 -0.01195312 0.86859375 0 0 Z M5 23 C7 24 7 24 7 24 Z " fill="#CBE1D5" transform="translate(343,582)"/>
<path d="M0 0 C6.40353322 -0.2361959 11.84629161 0.176679 18 2 C18 2.33 18 2.66 18 3 C16.35 3.33 14.7 3.66 13 4 C12.67 4.99 12.34 5.98 12 7 C13.32 7 14.64 7 16 7 C16 7.66 16 8.32 16 9 C10.72 8.34 5.44 7.68 0 7 C3.28700157 5.35649921 5.47930015 4.58678331 9 4 C8.67 3.01 8.34 2.02 8 1 C5.36 1 2.72 1 0 1 C0 0.67 0 0.34 0 0 Z " fill="#EBDBC8" transform="translate(752,392)"/>
<path d="M0 0 C1.32 0.33 2.64 0.66 4 1 C2.55218207 4.44428265 0.72305391 6.36130962 -2.125 8.75 C-3.21167969 9.67039062 -3.21167969 9.67039062 -4.3203125 10.609375 C-4.87460937 11.06828125 -5.42890625 11.5271875 -6 12 C-6.97591583 8.61682513 -6.85856655 6.4342662 -6 3 C-5.195625 2.87625 -4.39125 2.7525 -3.5625 2.625 C-2.716875 2.41875 -1.87125 2.2125 -1 2 C-0.67 1.34 -0.34 0.68 0 0 Z " fill="#41876A" transform="translate(800,623)"/>
<path d="M0 0 C0.33 0.99 0.66 1.98 1 3 C-0.3125 5.5 -0.3125 5.5 -2 8 C-4.25619542 10.91216721 -4.25619542 10.91216721 -4.5 14.625 C-4.665 15.73875 -4.83 16.8525 -5 18 C-5.66 18.33 -6.32 18.66 -7 19 C-7.46651207 21.12576782 -7.46651207 21.12576782 -7.625 23.5625 C-7.69976563 24.38878906 -7.77453125 25.21507812 -7.8515625 26.06640625 C-7.90054688 26.70449219 -7.94953125 27.34257812 -8 28 C-8.33 28 -8.66 28 -9 28 C-9.7595293 17.23156235 -8.0860564 10.52169784 -1.6875 1.875 C-1.130625 1.25625 -0.57375 0.6375 0 0 Z " fill="#E6D4BB" transform="translate(735,401)"/>
<path d="M0 0 C0.93423645 3.01031744 1.04449911 3.86650268 0 7 C-0.66 7 -1.32 7 -2 7 C-1.87625 8.11375 -1.87625 8.11375 -1.75 9.25 C-2 12 -2 12 -3.75 14.3125 C-6 16 -6 16 -10 16 C-9.1875 13.0625 -9.1875 13.0625 -8 10 C-7.01 9.67 -6.02 9.34 -5 9 C-4.32215008 6.66989091 -3.65583207 4.33640176 -3 2 C-2.01 1.34 -1.02 0.68 0 0 Z " fill="#E3E3E0" transform="translate(786,432)"/>
<path d="M0 0 C0 0.66 0 1.32 0 2 C0.66 2.33 1.32 2.66 2 3 C-3.12919186 5.10428384 -7.5610835 5.21755666 -13 5 C-13 4.34 -13 3.68 -13 3 C-8.70614007 -0.4887612 -5.28129105 -0.26854022 0 0 Z " fill="#E1E4E2" transform="translate(760,393)"/>
<path d="M0 0 C0.70962891 0.48919922 0.70962891 0.48919922 1.43359375 0.98828125 C10.67454846 7.09487705 18.99494245 8.50672849 30 9 C30 9.33 30 9.66 30 10 C13.1070615 10.3690205 13.1070615 10.3690205 6 8 C6 7.34 6 6.68 6 6 C5.34 6 4.68 6 4 6 C4 5.34 4 4.68 4 4 C2.68 3.34 1.36 2.68 0 2 C0 1.34 0 0.68 0 0 Z " fill="#CF9760" transform="translate(735,447)"/>
<path d="M0 0 C4.00647751 1.3354925 4.75744636 3.52765887 7 7 C7.66 7.33 8.32 7.66 9 8 C9 8.66 9 9.32 9 10 C9.99 10.33 10.98 10.66 12 11 C12 11.66 12 12.32 12 13 C12.66 13 13.32 13 14 13 C15.5 14.375 15.5 14.375 17 16 C17.66 16.66 18.32 17.32 19 18 C18.34 18.33 17.68 18.66 17 19 C9.73612551 14.07334438 4.70287022 8.40670024 0 1 C0 0.67 0 0.34 0 0 Z " fill="#CB9C68" transform="translate(715,448)"/>
<path d="M0 0 C0.66 1.32 1.32 2.64 2 4 C1.360625 4.268125 0.72125 4.53625 0.0625 4.8125 C-2.33131686 5.88667752 -2.33131686 5.88667752 -3 9 C-3.66 9 -4.32 9 -5 9 C-5.33 9.99 -5.66 10.98 -6 12 C-7.29355827 13.37195574 -8.62298702 14.71182656 -10 16 C-9.34 16.66 -8.68 17.32 -8 18 C-8.99 18.33 -9.98 18.66 -11 19 C-11.66 17.35 -12.32 15.7 -13 14 C-12.09507812 13.23816406 -12.09507812 13.23816406 -11.171875 12.4609375 C-6.69550368 8.6054822 -2.95211487 5.13411282 0 0 Z " fill="#D9E7DD" transform="translate(807,620)"/>
<path d="M0 0 C0.99 0.33 1.98 0.66 3 1 C3 2.98 3 4.96 3 7 C2.01 7 1.02 7 0 7 C-0.33 8.32 -0.66 9.64 -1 11 C-1.99 11 -2.98 11 -4 11 C-4 12.32 -4 13.64 -4 15 C-4.66 15 -5.32 15 -6 15 C-5.52789275 10.75103476 -5.03297519 8.91165618 -2 6 C-0.79950593 2.89992799 -0.79950593 2.89992799 0 0 Z " fill="#E1E3E3" transform="translate(736,401)"/>
<path d="M0 0 C2.475 0.495 2.475 0.495 5 1 C5 1.66 5 2.32 5 3 C14.9 3.33 24.8 3.66 35 4 C35 4.33 35 4.66 35 5 C30.65840162 5.07429025 26.3171423 5.12866741 21.97509766 5.16479492 C20.49879509 5.17985923 19.02253712 5.20031482 17.54638672 5.22631836 C15.42143742 5.26280739 13.29708099 5.27974933 11.171875 5.29296875 C9.2552002 5.31653442 9.2552002 5.31653442 7.29980469 5.34057617 C3.82792395 4.98223986 2.40362886 4.48871642 0 2 C0 1.34 0 0.68 0 0 Z " fill="#4B8068" transform="translate(592,600)"/>
<path d="M0 0 C2 0 2 0 3.625 1.375 C5 3 5 3 5 5 C14.57 5.33 24.14 5.66 34 6 C34 6.33 34 6.66 34 7 C29.96174934 7.12406007 25.92424362 7.21455045 21.88452148 7.2746582 C20.51192898 7.29972617 19.13946898 7.33379082 17.76733398 7.37719727 C15.78949304 7.43817531 13.81065816 7.46361009 11.83203125 7.48828125 C10.04889526 7.52755737 10.04889526 7.52755737 8.22973633 7.56762695 C4.07360217 6.83718535 2.59569372 5.24866767 0 2 C0 1.34 0 0.68 0 0 Z " fill="#4B826A" transform="translate(508,598)"/>
<path d="M0 0 C0.33 0 0.66 0 1 0 C0.67 2.31 0.34 4.62 0 7 C-0.66 7 -1.32 7 -2 7 C-2.0825 7.763125 -2.165 8.52625 -2.25 9.3125 C-3 12 -3 12 -4.875 13.875 C-5.57625 14.24625 -6.2775 14.6175 -7 15 C-7.99 14.67 -8.98 14.34 -10 14 C-9.61328125 13.57589844 -9.2265625 13.15179687 -8.828125 12.71484375 C-5.2605903 8.69695194 -2.51826571 4.74596229 0 0 Z " fill="#49896E" transform="translate(774,592)"/>
<path d="M0 0 C0 0.33 0 0.66 0 1 C-1.09054687 1.22042969 -1.09054687 1.22042969 -2.203125 1.4453125 C-10.14495562 3.21695164 -16.87652429 6.09724469 -24 10 C-23.7578125 8.1328125 -23.7578125 8.1328125 -23 6 C-16.28425286 1.59008879 -7.91599771 -0.32310195 0 0 Z " fill="#F2DFC6" transform="translate(752,374)"/>
<path d="M0 0 C4 1 4 1 7 2 C8.61121292 4.90018326 9.06645111 6.50161669 8.625 9.8125 C8.41875 10.534375 8.2125 11.25625 8 12 C7.34 12 6.68 12 6 12 C4.02 8.04 2.04 4.08 0 0 Z " fill="#D9EAE1" transform="translate(621,503)"/>
<path d="M0 0 C0.99 0.33 1.98 0.66 3 1 C-0.22302975 5.83454463 -3.82620318 7.75216109 -9 10 C-9.33 9.34 -9.66 8.68 -10 8 C-9.01 8 -8.02 8 -7 8 C-7.33 7.01 -7.66 6.02 -8 5 C-7.34 5 -6.68 5 -6 5 C-6 4.34 -6 3.68 -6 3 C-5.01 2.67 -4.02 2.34 -3 2 C-2.01 1.34 -1.02 0.68 0 0 Z " fill="#40886A" transform="translate(482,591)"/>
<path d="M0 0 C0.33 0 0.66 0 1 0 C1.33 4.95 1.66 9.9 2 15 C2.99 14.67 3.98 14.34 5 14 C5.125 19.75 5.125 19.75 4 22 C2.68 22 1.36 22 0 22 C0 14.74 0 7.48 0 0 Z " fill="#56987B" transform="translate(372,460)"/>
<path d="M0 0 C0.8353125 0.37125 0.8353125 0.37125 1.6875 0.75 C0.2025 2.235 0.2025 2.235 -1.3125 3.75 C-0.3225 4.74 0.6675 5.73 1.6875 6.75 C-0.2925 8.07 -2.2725 9.39 -4.3125 10.75 C-4.43625 9.96625 -4.56 9.1825 -4.6875 8.375 C-5.10367993 5.60942178 -5.10367993 5.60942178 -7.3125 3.75 C-2.88173077 -0.31153846 -2.88173077 -0.31153846 0 0 Z " fill="#EBDDCA" transform="translate(743.3125,396.25)"/>
<path d="M0 0 C0.99 0 1.98 0 3 0 C2.67475342 0.56009766 2.34950684 1.12019531 2.0144043 1.69726562 C0.87476042 4.28429837 0.75565552 6.02942471 0.76953125 8.84375 C0.77146484 9.76027344 0.77339844 10.67679688 0.77539062 11.62109375 C0.78763672 12.57113281 0.79988281 13.52117188 0.8125 14.5 C0.81314453 15.45003906 0.81378906 16.40007813 0.81445312 17.37890625 C0.84009242 21.42991504 0.87113475 25.08584975 2 29 C1.01 28.34 0.02 27.68 -1 27 C-1.35644531 24.40209961 -1.35644531 24.40209961 -1.328125 21.15234375 C-1.32296875 19.99025391 -1.3178125 18.82816406 -1.3125 17.63085938 C-1.291875 16.41205078 -1.27125 15.19324219 -1.25 13.9375 C-1.24484375 12.71482422 -1.2396875 11.49214844 -1.234375 10.23242188 C-1.15372024 1.15372024 -1.15372024 1.15372024 0 0 Z " fill="#428468" transform="translate(393,573)"/>
<path d="M0 0 C1.98 0 3.96 0 6 0 C6.33 0.66 6.66 1.32 7 2 C11.82425944 3.47180796 15.92477148 4.25376143 21 4 C21.33 4.66 21.66 5.32 22 6 C13.29942593 6.6727248 7.44638025 5.61280192 0 1 C0 0.67 0 0.34 0 0 Z " fill="#46876B" transform="translate(669,600)"/>
<path d="M0 0 C0.66 0 1.32 0 2 0 C2 2.31 2 4.62 2 7 C1.34 7 0.68 7 0 7 C-0.33 7.99 -0.66 8.98 -1 10 C-3.5625 11.6875 -3.5625 11.6875 -6 13 C-6 9.36848887 -4.98559794 7.89717554 -3.125 4.8125 C-2.59132813 3.91144531 -2.05765625 3.01039063 -1.5078125 2.08203125 C-0.76144531 1.05142578 -0.76144531 1.05142578 0 0 Z " fill="#DEE5DE" transform="translate(324,570)"/>
<path d="M0 0 C-1.50193475 5.34021246 -5.17482506 9.13647744 -9 13 C-9.33 13 -9.66 13 -10 13 C-9.93006145 9.50307233 -9.78999373 6.91504299 -7.4453125 4.19921875 C-2.61470764 0 -2.61470764 0 0 0 Z " fill="#48896B" transform="translate(377,497)"/>
<path d="M0 0 C0.66 0 1.32 0 2 0 C3.62109375 1.86328125 3.62109375 1.86328125 5.4375 4.3125 C7.49120771 7.06704102 9.50016864 9.63777403 12 12 C9.69 12 7.38 12 5 12 C5.33 11.01 5.66 10.02 6 9 C2.55291141 6.90493748 2.55291141 6.90493748 -1 5 C-0.67 3.35 -0.34 1.7 0 0 Z " fill="#D6E6DD" transform="translate(652,585)"/>
<path d="M0 0 C1.65 0 3.3 0 5 0 C6.305239 3.91571701 5.32239848 5.03892997 3.5625 8.6875 C3.08941406 9.68136719 2.61632812 10.67523437 2.12890625 11.69921875 C1.57009766 12.83810547 1.57009766 12.83810547 1 14 C0.34 12.68 -0.32 11.36 -1 10 C-0.01 9.67 0.98 9.34 2 9 C1.34 6.03 0.68 3.06 0 0 Z " fill="#468A6B" transform="translate(322,560)"/>
<path d="M0 0 C0.33 0 0.66 0 1 0 C1.33 2.31 1.66 4.62 2 7 C1.38125 7.28875 0.7625 7.5775 0.125 7.875 C-2.13325765 8.93720042 -2.13325765 8.93720042 -4 11 C-4.99 10.34 -5.98 9.68 -7 9 C-5.76302083 7.53515625 -4.52604167 6.0703125 -3.2890625 4.60546875 C-2.10798901 3.1344954 -1.04641471 1.56962206 0 0 Z " fill="#D2E4D9" transform="translate(491,584)"/>
<path d="M0 0 C0.33 0 0.66 0 1 0 C1.50146657 7.57771707 0.94998798 12.45783241 -3 19 C-3.33 19 -3.66 19 -4 19 C-4.20086443 15.28400809 -4.1519437 14.22791555 -2 11 C-1.58073551 8.52375646 -1.58073551 8.52375646 -1.4375 5.875 C-1.09828393 1.09828393 -1.09828393 1.09828393 0 0 Z " fill="#4A856B" transform="translate(704,578)"/>
<path d="M0 0 C0.99 1.485 0.99 1.485 2 3 C3.03425441 4.40133435 4.07635312 5.79690305 5.125 7.1875 C5.66382813 7.90292969 6.20265625 8.61835937 6.7578125 9.35546875 C7.16773438 9.89816406 7.57765625 10.44085937 8 11 C5.69 11.66 3.38 12.32 1 13 C1.20625 12.38125 1.4125 11.7625 1.625 11.125 C1.74875 10.42375 1.8725 9.7225 2 9 C1.34 8.34 0.68 7.68 0 7 C-0.125 3.375 -0.125 3.375 0 0 Z " fill="#448A6C" transform="translate(739,531)"/>
<path d="M0 0 C0.33 0 0.66 0 1 0 C1.05413245 2.89608593 1.09373641 5.79115195 1.125 8.6875 C1.15013672 9.91243164 1.15013672 9.91243164 1.17578125 11.16210938 C1.2114802 15.57092929 1.07580814 18.98731576 -1 23 C-2.13055826 19.60832521 -1.7231605 17.45510019 -1 14 C-0.82010085 9.32189426 -0.82010085 9.32189426 -1.625 4.75 C-1.74875 4.1725 -1.8725 3.595 -2 3 C-1.34 2.01 -0.68 1.02 0 0 Z " fill="#D19B5D" transform="translate(806,419)"/>
<path d="M0 0 C0.66 0.99 1.32 1.98 2 3 C0.35 6.3 -1.3 9.6 -3 13 C-3.99 13 -4.98 13 -6 13 C-6 11.68 -6 10.36 -6 9 C-4.68 8.67 -3.36 8.34 -2 8 C-1.855625 7.4225 -1.71125 6.845 -1.5625 6.25 C-1.04166667 4.16666667 -0.52083333 2.08333333 0 0 Z " fill="#42866A" transform="translate(492,576)"/>
<path d="M0 0 C0.66 0 1.32 0 2 0 C1.01 4.95 0.02 9.9 -1 15 C-1.33 15 -1.66 15 -2 15 C-3.2019586 8.77166905 -2.93161919 5.62870885 0 0 Z " fill="#D7E8DF" transform="translate(350,550)"/>
<path d="M0 0 C0.33 0 0.66 0 1 0 C1.17015625 0.66386719 1.3403125 1.32773437 1.515625 2.01171875 C2.93131569 7.16995346 4.1901501 11.05877597 8 15 C7.67 15.66 7.34 16.32 7 17 C6.34 17 5.68 17 5 17 C0.256591 11.66366488 -0.23252421 6.85946419 0 0 Z " fill="#D0A06C" transform="translate(726,429)"/>
<path d="M0 0 C1.64826111 2.96687001 2.44271087 5.65626525 3 9 C3.66 9 4.32 9 5 9 C5 11.97 5 14.94 5 18 C3.22529503 14.45059005 1.7827914 10.9547142 0.375 7.25 C-0.07101562 6.07953125 -0.51703125 4.9090625 -0.9765625 3.703125 C-1.31429687 2.81109375 -1.65203125 1.9190625 -2 1 C-1.34 0.67 -0.68 0.34 0 0 Z " fill="#F0DBC8" transform="translate(803,398)"/>
<path d="M0 0 C0.66 0.33 1.32 0.66 2 1 C1.39009109 4.55780196 0.4216319 7.6828589 -1 11 C-2.32 10.34 -3.64 9.68 -5 9 C-3.35 6.03 -1.7 3.06 0 0 Z " fill="#D4E3D9" transform="translate(813,610)"/>
<path d="M0 0 C4.12751449 0.60698743 7.3321148 2.03810791 11 4 C11 4.66 11 5.32 11 6 C10.443125 5.855625 9.88625 5.71125 9.3125 5.5625 C8.549375 5.376875 7.78625 5.19125 7 5 C6.154375 4.79375 5.30875 4.5875 4.4375 4.375 C1.86901927 3.78987986 1.86901927 3.78987986 -1 5 C-0.67 3.35 -0.34 1.7 0 0 Z " fill="#D3E6DB" transform="translate(668,601)"/>
<path d="M0 0 C0.99 0.66 1.98 1.32 3 2 C2.34 2 1.68 2 1 2 C0.71125 2.763125 0.4225 3.52625 0.125 4.3125 C-1 7 -1 7 -3 10 C-3.99 9.67 -4.98 9.34 -6 9 C-5.67 7.02 -5.34 5.04 -5 3 C-4.34 3.66 -3.68 4.32 -3 5 C-2.01 3.35 -1.02 1.7 0 0 Z " fill="#418B6A" transform="translate(552,526)"/>
<path d="M0 0 C3 1 3 1 4 3 C5.32 2.67 6.64 2.34 8 2 C8.33 2.99 8.66 3.98 9 5 C7.66666667 6.33333333 6.33333333 7.66666667 5 9 C4.16396622 7.68921847 3.3312426 6.37632511 2.5 5.0625 C2.0359375 4.33160156 1.571875 3.60070312 1.09375 2.84765625 C0 1 0 1 0 0 Z " fill="#3F8365" transform="translate(702,552)"/>
<path d="M0 0 C4.24480464 -0.33292585 6.35542625 -0.43885872 9.9375 2 C10.618125 2.66 11.29875 3.32 12 4 C11.67 4.99 11.34 5.98 11 7 C7.37 5.02 3.74 3.04 0 1 C0 0.67 0 0.34 0 0 Z " fill="#D1E7DB" transform="translate(472,527)"/>
<path d="M0 0 C-1 2 -1 2 -3.5 3.0625 C-7.65627604 4.17578822 -11.72200161 4.6387468 -16 5 C-11.74719134 0.74719134 -5.8758621 -0.44068966 0 0 Z " fill="#47886D" transform="translate(254,480)"/>
<path d="M0 0 C0 3 0 3 -2 6 C-2.66 6 -3.32 6 -4 6 C-4 6.66 -4 7.32 -4 8 C-7.52948291 9.66670026 -9.28272326 10.13583456 -13 9 C-12.31292969 8.60167969 -11.62585938 8.20335937 -10.91796875 7.79296875 C-10.01691406 7.26316406 -9.11585938 6.73335938 -8.1875 6.1875 C-7.29417969 5.66542969 -6.40085937 5.14335937 -5.48046875 4.60546875 C-3.33168013 3.21467801 -1.70638383 1.8877934 0 0 Z " fill="#F0D9C3" transform="translate(793,459)"/>
<path d="M0 0 C3.1875 -0.5 3.1875 -0.5 7 0 C9.15024236 2.42700622 10.59103494 5.09116891 12 8 C9.14940657 6.61964507 6.44119096 5.10703513 3.75 3.4375 C3.04359375 3.00308594 2.3371875 2.56867188 1.609375 2.12109375 C1.07828125 1.75113281 0.5471875 1.38117188 0 1 C0 0.67 0 0.34 0 0 Z " fill="#EDDCC5" transform="translate(780,379)"/>
<path d="M0 0 C0.33 0 0.66 0 1 0 C1.33 5.28 1.66 10.56 2 16 C1.01 16.33 0.02 16.66 -1 17 C-1 18.65 -1 20.3 -1 22 C-1.66 22 -2.32 22 -3 22 C-2.125 16.25 -2.125 16.25 -1 14 C-0.76970044 11.62876754 -0.58880058 9.25258057 -0.4375 6.875 C-0.35371094 5.59367188 -0.26992188 4.31234375 -0.18359375 2.9921875 C-0.09271484 1.51105469 -0.09271484 1.51105469 0 0 Z " fill="#B5D3C3" transform="translate(496,560)"/>
<path d="M0 0 C1.15510154 4.62040617 0.77848158 6.63463613 -1 11 C-2.65 11.66 -4.3 12.32 -6 13 C-4.02 8.71 -2.04 4.42 0 0 Z " fill="#EDDECA" transform="translate(805,440)"/>
<path d="M0 0 C-0.185625 0.61875 -0.37125 1.2375 -0.5625 1.875 C-1.23686176 4.04160178 -1.23686176 4.04160178 0 6 C-2.97 6 -5.94 6 -9 6 C-6.4969893 0.99397859 -5.61835377 0 0 0 Z " fill="#3E8669" transform="translate(517,434)"/>
<path d="M0 0 C0.66 0 1.32 0 2 0 C2.33 1.32 2.66 2.64 3 4 C3.66 4 4.32 4 5 4 C4.67 5.65 4.34 7.3 4 9 C2.0625 8.3125 2.0625 8.3125 0 7 C-0.93580311 4.12060581 -1.37245106 2.74490212 0 0 Z " fill="#E6E2E5" transform="translate(775,399)"/>
<path d="M0 0 C-4.90924297 3.92739438 -7.73920552 4.43177893 -14 4 C-12.66065756 1.32131513 -11.48307603 1.25045922 -8.6875 0.3125 C-7.90761719 0.04050781 -7.12773438 -0.23148437 -6.32421875 -0.51171875 C-3.81725489 -1.03839183 -2.39867657 -0.8178554 0 0 Z " fill="#CFA062" transform="translate(750,376)"/>
<path d="M0 0 C0.33 0 0.66 0 1 0 C2.51331844 10.53187833 2.51331844 10.53187833 0 15 C-0.33 15.66 -0.66 16.32 -1 17 C-1.99 16.67 -2.98 16.34 -4 16 C-3.525625 15.030625 -3.05125 14.06125 -2.5625 13.0625 C-0.71147001 8.80163851 -0.30248407 4.59984394 0 0 Z " fill="#CDE4D7" transform="translate(378,584)"/>
<path d="M0 0 C0.66 1.32 1.32 2.64 2 4 C-3.75 7 -3.75 7 -6 7 C-6.33 7.99 -6.66 8.98 -7 10 C-7.66 10 -8.32 10 -9 10 C-8.8125 8.1875 -8.8125 8.1875 -8 6 C-5.625 4.4375 -5.625 4.4375 -3 3 C-1.24850835 1.41754725 -1.24850835 1.41754725 0 0 Z " fill="#408567" transform="translate(285,554)"/>
<path d="M0 0 C0.66 0.99 1.32 1.98 2 3 C1.34 3.66 0.68 4.32 0 5 C0 5.99 0 6.98 0 8 C-3.75 9.125 -3.75 9.125 -6 8 C-6 7.34 -6 6.68 -6 6 C-4.34997172 4.64613064 -2.6825613 3.31321858 -1 2 C-0.67 1.34 -0.34 0.68 0 0 Z " fill="#D9E6DD" transform="translate(699,598)"/>
<path d="M0 0 C0.89267578 0.00966797 1.78535156 0.01933594 2.70507812 0.02929688 C4.09823242 0.06700195 4.09823242 0.06700195 5.51953125 0.10546875 C6.45990234 0.11900391 7.40027344 0.13253906 8.36914062 0.14648438 C10.69068163 0.18183779 13.01106778 0.23118201 15.33203125 0.29296875 C15.33203125 0.62296875 15.33203125 0.95296875 15.33203125 1.29296875 C9.06203125 1.29296875 2.79203125 1.29296875 -3.66796875 1.29296875 C-3.99796875 2.28296875 -4.32796875 3.27296875 -4.66796875 4.29296875 C-5.65796875 3.96296875 -6.64796875 3.63296875 -7.66796875 3.29296875 C-5.25260353 0.33098623 -3.77606574 -0.07215412 0 0 Z " fill="#588B75" transform="translate(400.66796875,568.70703125)"/>
<path d="M0 0 C0.33 0 0.66 0 1 0 C2.09845718 4.32059823 3.17812739 8.61667943 4 13 C1.525 12.01 1.525 12.01 -1 11 C-0.67 7.37 -0.34 3.74 0 0 Z " fill="#EFDECF" transform="translate(709,432)"/>
<path d="M0 0 C0.61875 0.86625 0.61875 0.86625 1.25 1.75 C3.02282212 4.02934272 4.92683349 5.99370983 7 8 C7.66 8.66 8.32 9.32 9 10 C7.02 10 5.04 10 3 10 C0.96564469 6.27034861 0 4.33094958 0 0 Z " fill="#CFE3D8" transform="translate(744,640)"/>
<path d="M0 0 C2.2477975 2.05233685 3.0022242 3.00667261 4 6 C4.06802967 7.72795352 4.08495645 9.45835365 4.0625 11.1875 C4.05347656 12.08855469 4.04445313 12.98960937 4.03515625 13.91796875 C4.02355469 14.60503906 4.01195312 15.29210937 4 16 C3.67 16 3.34 16 3 16 C2.01751476 11.9472484 1.91840426 8.16138263 2 4 C1.01 3.67 0.02 3.34 -1 3 C-0.67 2.01 -0.34 1.02 0 0 Z " fill="#BFE0D0" transform="translate(285,530)"/>
<path d="M0 0 C3.465 1.98 3.465 1.98 7 4 C6.34 4.66 5.68 5.32 5 6 C4.34 5.67 3.68 5.34 3 5 C2.01 5.33 1.02 5.66 0 6 C-0.66 5.34 -1.32 4.68 -2 4 C-2 3.34 -2 2.68 -2 2 C-1.34 2 -0.68 2 0 2 C0 1.34 0 0.68 0 0 Z " fill="#418B6B" transform="translate(475,529)"/>
<path d="M0 0 C3.34373475 0.55728913 6.03312999 1.35173889 9 3 C8.67 3.99 8.34 4.98 8 6 C4.08597051 4.73058503 2.20927127 3.48832306 0 0 Z " fill="#D7E8DD" transform="translate(743,537)"/>
<path d="M0 0 C-0.66 1.98 -1.32 3.96 -2 6 C-3.65 4.35 -5.3 2.7 -7 1 C-3.375 -1.125 -3.375 -1.125 0 0 Z " fill="#44896C" transform="translate(664,589)"/>
<path d="M0 0 C1.58560393 0.25720674 3.16845924 0.53138799 4.75 0.8125 C5.63171875 0.96332031 6.5134375 1.11414063 7.421875 1.26953125 C10.1910911 2.05414248 11.8259401 3.14595359 14 5 C8.58609132 4.53328373 4.79482068 3.75702189 0 1 C0 0.67 0 0.34 0 0 Z " fill="#C89864" transform="translate(734,467)"/>
<path d="M0 0 C1.32 0.33 2.64 0.66 4 1 C2.92456217 1.98783194 1.83926783 2.96493943 0.75 3.9375 C-0.15492188 4.75541016 -0.15492188 4.75541016 -1.078125 5.58984375 C-3.08467305 7.06212799 -4.57002449 7.57529189 -7 8 C-7 7.34 -7 6.68 -7 6 C-4.7272325 4.50475822 -2.4320057 3.21600285 0 2 C0 1.34 0 0.68 0 0 Z " fill="#D2A36B" transform="translate(775,439)"/>
<path d="M0 0 C0.99 0.33 1.98 0.66 3 1 C3.33 3.31 3.66 5.62 4 8 C3.01 8.66 2.02 9.32 1 10 C1.0928125 8.6078125 1.0928125 8.6078125 1.1875 7.1875 C1.30894264 4.01604897 1.30894264 4.01604897 -0.5 2.125 C-0.995 1.75375 -1.49 1.3825 -2 1 C-1.34 0.67 -0.68 0.34 0 0 Z " fill="#4B886D" transform="translate(453,558)"/>
<path d="M0 0 C1.32 0.33 2.64 0.66 4 1 C4 1.66 4 2.32 4 3 C5.32 3.33 6.64 3.66 8 4 C8 4.99 8 5.98 8 7 C7.01 7 6.02 7 5 7 C3.61328125 5.46875 3.61328125 5.46875 2.3125 3.5 C1.87550781 2.8503125 1.43851563 2.200625 0.98828125 1.53125 C0.49908203 0.77328125 0.49908203 0.77328125 0 0 Z " fill="#D4E6DC" transform="translate(614,495)"/>
<path d="M0 0 C-0.5775 0.2475 -1.155 0.495 -1.75 0.75 C-4.13266887 1.9318612 -4.13266887 1.9318612 -6.0625 4.125 C-8 6 -8 6 -11 6 C-10.75 4.125 -10.75 4.125 -10 2 C-6.82026536 -0.35535899 -3.84875379 -0.17494335 0 0 Z " fill="#CFE4DB" transform="translate(517,433)"/>
<path d="M0 0 C1.88671875 0.2578125 1.88671875 0.2578125 4 1 C5.08203125 2.7421875 5.08203125 2.7421875 5.8125 4.875 C6.06644531 5.57367188 6.32039062 6.27234375 6.58203125 6.9921875 C7 9 7 9 6 12 C4.5393715 9.35261084 4 8.10551666 4 5 C3.34 5 2.68 5 2 5 C1.34 3.35 0.68 1.7 0 0 Z " fill="#CC9C63" transform="translate(783,403)"/>
<path d="M0 0 C1.50433594 0.29197266 1.50433594 0.29197266 3.0390625 0.58984375 C4.19535156 0.82380859 4.19535156 0.82380859 5.375 1.0625 C5.375 1.3925 5.375 1.7225 5.375 2.0625 C3.77384424 2.3118357 2.16879841 2.53628648 0.5625 2.75 C-0.77748047 2.94142578 -0.77748047 2.94142578 -2.14453125 3.13671875 C-4.625 3.0625 -4.625 3.0625 -6.44921875 1.58203125 C-6.83722656 1.08058594 -7.22523438 0.57914063 -7.625 0.0625 C-4.81015955 -1.34492022 -3.05563887 -0.60402164 0 0 Z " fill="#3F8568" transform="translate(402.625,601.9375)"/>
<path d="M0 0 C1.32 0 2.64 0 4 0 C4.36923077 5.41538462 4.36923077 5.41538462 2.5 8.375 C2.005 8.91125 1.51 9.4475 1 10 C-0.25541557 6.23375329 0.62938042 4.62811066 2 1 C1.34 0.67 0.68 0.34 0 0 Z " fill="#CBE6D8" transform="translate(772,584)"/>
<path d="M0 0 C2.31 0.66 4.62 1.32 7 2 C7 2.66 7 3.32 7 4 C8.65 4.33 10.3 4.66 12 5 C10.02 5.99 10.02 5.99 8 7 C6.66382648 6.02471263 5.3311249 5.04466681 4 4.0625 C3.2575 3.51722656 2.515 2.97195313 1.75 2.41015625 C1.1725 1.94480469 0.595 1.47945312 0 1 C0 0.67 0 0.34 0 0 Z " fill="#498B70" transform="translate(712,567)"/>
<path d="M0 0 C0.763125 0.309375 1.52625 0.61875 2.3125 0.9375 C4.18789677 1.67893593 6.08684652 2.36228217 8 3 C8 3.99 8 4.98 8 6 C5.69 5.34 3.38 4.68 1 4 C1 3.34 1 2.68 1 2 C0.34 1.67 -0.32 1.34 -1 1 C-0.67 0.67 -0.34 0.34 0 0 Z " fill="#E0E4E6" transform="translate(744,447)"/>
<path d="M0 0 C3.96 1.98 3.96 1.98 8 4 C7.34 4.66 6.68 5.32 6 6 C3.5625 5.25 3.5625 5.25 1 4 C0.67 2.68 0.34 1.36 0 0 Z " fill="#DAE8DF" transform="translate(588,600)"/>
<path d="M0 0 C0.928125 1.175625 0.928125 1.175625 1.875 2.375 C3.89858661 4.96837647 3.89858661 4.96837647 6 7 C4.68 7 3.36 7 2 7 C2 6.34 2 5.68 2 5 C0.68 5 -0.64 5 -2 5 C-1.34 3.35 -0.68 1.7 0 0 Z " fill="#D0E5DA" transform="translate(507,598)"/>
<path d="M0 0 C0.99 0.66 1.98 1.32 3 2 C2.01 2.33 1.02 2.66 0 3 C0 3.99 0 4.98 0 6 C-1.875 6.625 -1.875 6.625 -4 7 C-4.66 6.34 -5.32 5.68 -6 5 C-4.02 3.35 -2.04 1.7 0 0 Z " fill="#CFE5D7" transform="translate(313,586)"/>
<path d="M0 0 C3.26915556 4.90373335 4.22450809 7.05053549 4 13 C2.20931427 10.3139714 1.33944209 8.3373411 0.375 5.3125 C-0.01558594 4.10013672 -0.01558594 4.10013672 -0.4140625 2.86328125 C-0.60742188 2.24839844 -0.80078125 1.63351562 -1 1 C-0.67 0.67 -0.34 0.34 0 0 Z " fill="#D1E9DB" transform="translate(493,544)"/>
<path d="M0 0 C2.93200474 2.85276137 5.64315404 5.65079784 8 9 C5.6875 8.875 5.6875 8.875 3 8 C0 3.13793103 0 3.13793103 0 0 Z " fill="#CFEBDF" transform="translate(394,541)"/>
<path d="M0 0 C0.33 1.32 0.66 2.64 1 4 C0.01 4 -0.98 4 -2 4 C-1.34 2.68 -0.68 1.36 0 0 Z M-5 5 C-4.01 5 -3.02 5 -2 5 C-3.75 8.875 -3.75 8.875 -6 10 C-5.67 8.35 -5.34 6.7 -5 5 Z " fill="#E29341" transform="translate(789,440)"/>
<path d="M0 0 C0.8125 1.6875 0.8125 1.6875 1 4 C-1.375 6.625 -1.375 6.625 -4 9 C-4.33 9.66 -4.66 10.32 -5 11 C-5.66 10.67 -6.32 10.34 -7 10 C-4.75421558 6.59260295 -2.48862878 3.23521742 0 0 Z " fill="#CD9F6B" transform="translate(722,389)"/>
<path d="M0 0 C4.34464536 0.60825035 8.67551867 1.26167392 13 2 C13 2.33 13 2.66 13 3 C9.37 3 5.74 3 2 3 C2 2.34 2 1.68 2 1 C1.34 0.67 0.68 0.34 0 0 Z " fill="#CDE6D8" transform="translate(246,603)"/>
<path d="M0 0 C2.64 0.33 5.28 0.66 8 1 C5.40517871 3.59482129 3.60116375 3.69990302 0 4 C-0.66 3.34 -1.32 2.68 -2 2 C-1.34 2 -0.68 2 0 2 C0 1.34 0 0.68 0 0 Z " fill="#46866B" transform="translate(464,600)"/>
<path d="M0 0 C0.86625 0.37125 0.86625 0.37125 1.75 0.75 C0.80125 1.348125 -0.1475 1.94625 -1.125 2.5625 C-4.38964197 4.56562526 -4.38964197 4.56562526 -6.25 7.75 C-6.25 3.75 -6.25 3.75 -4.5 1.4375 C-2.25 -0.25 -2.25 -0.25 0 0 Z " fill="#45856A" transform="translate(297.25,434.25)"/>
<path d="M0 0 C0.99 0.33 1.98 0.66 3 1 C1.35 4.3 -0.3 7.6 -2 11 C-3.13643966 7.59068103 -2.86747764 6.99664544 -1.5625 3.8125 C-1.13130859 2.73935547 -1.13130859 2.73935547 -0.69140625 1.64453125 C-0.46324219 1.10183594 -0.23507812 0.55914062 0 0 Z " fill="#CFA064" transform="translate(730,403)"/>
<path d="M0 0 C0.66 0.99 1.32 1.98 2 3 C0.68 4.32 -0.64 5.64 -2 7 C-2.99 6.67 -3.98 6.34 -5 6 C-3.35 4.02 -1.7 2.04 0 0 Z " fill="#41876A" transform="translate(219,499)"/>
<path d="M0 0 C-0.33 1.32 -0.66 2.64 -1 4 C-2.32 4.33 -3.64 4.66 -5 5 C-5.33 3.68 -5.66 2.36 -6 1 C-4 0 -4 0 0 0 Z " fill="#D6E6DC" transform="translate(398,489)"/>
<path d="M0 0 C0.99 0 1.98 0 3 0 C3 4.62 3 9.24 3 14 C2.67 14 2.34 14 2 14 C2 10.37 2 6.74 2 3 C1.34 3 0.68 3 0 3 C0 2.01 0 1.02 0 0 Z " fill="#5F8E76" transform="translate(348,434)"/>
<path d="M0 0 C0.33 0 0.66 0 1 0 C1.9765625 6.0546875 1.9765625 6.0546875 2 8 C1.34 8.66 0.68 9.32 0 10 C-0.66 9.67 -1.32 9.34 -2 9 C-1.34 6.03 -0.68 3.06 0 0 Z " fill="#4A8C6F" transform="translate(630,592)"/>
<path d="M0 0 C0.66 0 1.32 0 2 0 C0.375 5.75 0.375 5.75 -3 8 C-3 4.40142046 -2.04169485 2.90548882 0 0 Z " fill="#D2E3D9" transform="translate(321,575)"/>
<path d="M0 0 C2.35953094 2.35953094 2.49141413 3.77895617 3 7 C2.01 7.33 1.02 7.66 0 8 C-0.79953138 4.71303767 -1.09658936 3.28976808 0 0 Z " fill="#CFE3DA" transform="translate(205,560)"/>
<path d="M0 0 C2.66735273 2.48952921 4.55746343 4.63408134 6 8 C2.46399535 6.08864614 0.21027154 4.37357234 -2 1 C-1.34 0.67 -0.68 0.34 0 0 Z " fill="#D0E2D9" transform="translate(252,553)"/>
<path d="M0 0 C0 0.66 0 1.32 0 2 C-0.66 2 -1.32 2 -2 2 C-1.67 3.98 -1.34 5.96 -1 8 C-2.65 6.35 -4.3 4.7 -6 3 C-2.25 0 -2.25 0 0 0 Z " fill="#47896C" transform="translate(589,524)"/>
<path d="M0 0 C0.99 0 1.98 0 3 0 C4.6875 2.5 4.6875 2.5 6 5 C4.02 5 2.04 5 0 5 C0 3.35 0 1.7 0 0 Z " fill="#428467" transform="translate(615,499)"/>
<path d="M0 0 C1.65 0 3.3 0 5 0 C5 0.66 5 1.32 5 2 C3.68 2 2.36 2 1 2 C1 2.99 1 3.98 1 5 C0.01 5 -0.98 5 -2 5 C-2 4.01 -2 3.02 -2 2 C-1.34 2 -0.68 2 0 2 C0 1.34 0 0.68 0 0 Z " fill="#E0E2E1" transform="translate(770,447)"/>
<path d="M0 0 C0.68707555 2.49064888 1 4.37886292 1 7 C-0.32 6.67 -1.64 6.34 -3 6 C-2.625 3.5625 -2.625 3.5625 -2 1 C-1.34 0.67 -0.68 0.34 0 0 Z " fill="#D9E3DD" transform="translate(787,639)"/>
<path d="M0 0 C-2.97 1.32 -5.94 2.64 -9 4 C-9.33 3.34 -9.66 2.68 -10 2 C-3.375 -1.125 -3.375 -1.125 0 0 Z " fill="#3E8467" transform="translate(787,640)"/>
<path d="M0 0 C0.66 1.32 1.32 2.64 2 4 C1.360625 4.28875 0.72125 4.5775 0.0625 4.875 C-2.15206079 5.82823451 -2.15206079 5.82823451 -3 8 C-2.45276317 4.62537285 -1.9451 2.91765 0 0 Z " fill="#CFE3D7" transform="translate(807,620)"/>
<path d="M0 0 C0.33 1.32 0.66 2.64 1 4 C-1.475 5.485 -1.475 5.485 -4 7 C-3.39816251 4.97954558 -2.72693904 2.97888961 -2 1 C-1.34 0.67 -0.68 0.34 0 0 Z " fill="#CDE1D6" transform="translate(706,588)"/>
<path d="M0 0 C0.99 0 1.98 0 3 0 C4.75 2.3125 4.75 2.3125 6 5 C5.67 5.99 5.34 6.98 5 8 C4.16382818 6.8562364 3.33113541 5.70992861 2.5 4.5625 C2.0359375 3.92441406 1.571875 3.28632812 1.09375 2.62890625 C0 1 0 1 0 0 Z " fill="#458168" transform="translate(212,574)"/>
<path d="M0 0 C1.9451 2.91765 2.45276317 4.62537285 3 8 C1 8 1 8 -0.625 6.6875 C-2 5 -2 5 -2 2 C-1.34 2 -0.68 2 0 2 C0 1.34 0 0.68 0 0 Z " fill="#C6DED0" transform="translate(699,545)"/>
<path d="M0 0 C3.465 1.98 3.465 1.98 7 4 C7 4.99 7 5.98 7 7 C5.68 6.34 4.36 5.68 3 5 C3 4.34 3 3.68 3 3 C2.01 2.67 1.02 2.34 0 2 C0 1.34 0 0.68 0 0 Z " fill="#CCEAD8" transform="translate(576,522)"/>
<path d="M0 0 C1.75098126 2.62647188 3.38731308 5.28775382 5 8 C4.01 8.33 3.02 8.66 2 9 C-0.29013653 5.5647952 -0.17842973 4.014669 0 0 Z " fill="#C6E0D1" transform="translate(344,494)"/>
<path d="M0 0 C-2.97 2.475 -2.97 2.475 -6 5 C-6 3.35 -6 1.7 -6 0 C-3 -1 -3 -1 0 0 Z " fill="#CFE1D6" transform="translate(224,495)"/>
<path d="M0 0 C2.3431213 0.25561323 4.67843403 0.59270772 7 1 C7.33 1.66 7.66 2.32 8 3 C7.34 3.66 6.68 4.32 6 5 C4.68 4.34 3.36 3.68 2 3 C2 2.34 2 1.68 2 1 C1.34 0.67 0.68 0.34 0 0 Z " fill="#448768" transform="translate(481,479)"/>
<path d="M0 0 C1.98 0.99 1.98 0.99 4 2 C3.67 4.97 3.34 7.94 3 11 C2.67 11 2.34 11 2 11 C1.77213542 9.01432292 1.54427083 7.02864583 1.31640625 5.04296875 C1.02829265 2.80603607 1.02829265 2.80603607 0 0 Z " fill="#DAEFE2" transform="translate(330,437)"/>
<path d="M0 0 C0.33 0.99 0.66 1.98 1 3 C-0.4375 5.6875 -0.4375 5.6875 -2 8 C-2.66 7.67 -3.32 7.34 -4 7 C-2.79618552 4.50638429 -1.54571278 2.31856917 0 0 Z " fill="#ECDAC2" transform="translate(735,401)"/>
<path d="M0 0 C0.33 0 0.66 0 1 0 C0.67 2.97 0.34 5.94 0 9 C-0.99 9.33 -1.98 9.66 -3 10 C-2.01 6.7 -1.02 3.4 0 0 Z " fill="#CAA06C" transform="translate(713,402)"/>
<path d="M0 0 C1.98 1.65 3.96 3.3 6 5 C4.02 5.99 4.02 5.99 2 7 C2 5.68 2 4.36 2 3 C1.01 2.67 0.02 2.34 -1 2 C-0.67 1.34 -0.34 0.68 0 0 Z " fill="#DAE9E1" transform="translate(218,584)"/>
<path d="M0 0 C0.66 0 1.32 0 2 0 C4.21747812 2.30276574 4.96760006 3.52480092 5.1875 6.75 C5.125625 7.4925 5.06375 8.235 5 9 C0.57142857 3.85714286 0.57142857 3.85714286 0 0 Z " fill="#49886D" transform="translate(648,575)"/>
<path d="M0 0 C2.66735273 2.48952921 4.55746343 4.63408134 6 8 C3.5625 7.375 3.5625 7.375 1 6 C0.1875 2.875 0.1875 2.875 0 0 Z " fill="#CFE7DB" transform="translate(211,574)"/>
<path d="M0 0 C1.485 0.99 1.485 0.99 3 2 C3 2.66 3 3.32 3 4 C3.66 4.33 4.32 4.66 5 5 C4.34 5.66 3.68 6.32 3 7 C1.68 5.35 0.36 3.7 -1 2 C-0.67 1.34 -0.34 0.68 0 0 Z " fill="#4A8A71" transform="translate(398,542)"/>
<path d="M0 0 C0.66 0.33 1.32 0.66 2 1 C-3.75 6 -3.75 6 -6 6 C-6 5.01 -6 4.02 -6 3 C-4.68 3 -3.36 3 -2 3 C-2 2.34 -2 1.68 -2 1 C-1.34 0.67 -0.68 0.34 0 0 Z " fill="#CC9B63" transform="translate(790,460)"/>
</svg>
